{
 "asset": {
  "version": "2.0",
  "generator": "parnitha tools/gen_animals_new.py"
 },
 "scene": 0,
 "scenes": [
  {
   "name": "player_shadow_new",
   "nodes": [
    0,
    1
   ]
  }
 ],
 "nodes": [
  {
   "name": "player_shadow_new_mesh",
   "mesh": 0,
   "skin": 0
  },
  {
   "name": "root",
   "translation": [
    0.0,
    0.0,
    0.0
   ],
   "children": [
    2
   ]
  },
  {
   "name": "hips",
   "translation": [
    0.0,
    0.94,
    0.0
   ],
   "children": [
    3,
    14,
    17
   ]
  },
  {
   "name": "spine",
   "translation": [
    0.0,
    0.18000000000000016,
    0.0
   ],
   "children": [
    4
   ]
  },
  {
   "name": "chest",
   "translation": [
    0.0,
    0.19999999999999996,
    0.0
   ],
   "children": [
    5,
    7,
    10
   ]
  },
  {
   "name": "neck",
   "translation": [
    0.0,
    0.1399999999999999,
    0.0
   ],
   "children": [
    6
   ]
  },
  {
   "name": "head",
   "translation": [
    0.0,
    0.10000000000000009,
    0.0
   ]
  },
  {
   "name": "arm_r_upper",
   "translation": [
    0.215,
    0.09499999999999997,
    0.0
   ],
   "children": [
    8
   ]
  },
  {
   "name": "arm_r_lower",
   "translation": [
    0.05700000000000002,
    -0.21700000000000008,
    -0.022
   ],
   "children": [
    9
   ]
  },
  {
   "name": "hand_r",
   "translation": [
    -0.11200000000000002,
    -0.11299999999999999,
    -0.163
   ],
   "children": [
    13
   ]
  },
  {
   "name": "arm_l_upper",
   "translation": [
    -0.215,
    0.09499999999999997,
    0.0
   ],
   "children": [
    11
   ]
  },
  {
   "name": "arm_l_lower",
   "translation": [
    -0.013000000000000012,
    -0.20300000000000007,
    -0.142
   ],
   "children": [
    12
   ]
  },
  {
   "name": "hand_l",
   "translation": [
    0.20800000000000002,
    -0.07200000000000006,
    -0.378
   ]
  },
  {
   "name": "weapon",
   "translation": [
    0.0,
    0.0,
    0.0
   ]
  },
  {
   "name": "leg_r_upper",
   "translation": [
    0.098,
    -0.020000000000000018,
    0.0
   ],
   "children": [
    15
   ]
  },
  {
   "name": "leg_r_lower",
   "translation": [
    0.0,
    -0.41999999999999993,
    0.012
   ],
   "children": [
    16
   ]
  },
  {
   "name": "foot_r",
   "translation": [
    0.0,
    -0.415,
    -0.012
   ]
  },
  {
   "name": "leg_l_upper",
   "translation": [
    -0.098,
    -0.020000000000000018,
    0.0
   ],
   "children": [
    18
   ]
  },
  {
   "name": "leg_l_lower",
   "translation": [
    0.0,
    -0.41999999999999993,
    0.012
   ],
   "children": [
    19
   ]
  },
  {
   "name": "foot_l",
   "translation": [
    0.0,
    -0.415,
    -0.012
   ]
  }
 ],
 "meshes": [
  {
   "name": "player_shadow_new",
   "primitives": [
    {
     "attributes": {
      "POSITION": 0,
      "NORMAL": 1,
      "TEXCOORD_0": 2,
      "JOINTS_0": 3,
      "WEIGHTS_0": 4
     },
     "indices": 5,
     "material": 0,
     "mode": 4
    }
   ]
  }
 ],
 "skins": [
  {
   "name": "player_shadow_new_skin",
   "inverseBindMatrices": 6,
   "skeleton": 1,
   "joints": [
    1,
    2,
    3,
    4,
    5,
    6,
    7,
    8,
    9,
    10,
    11,
    12,
    13,
    14,
    15,
    16,
    17,
    18,
    19
   ]
  }
 ],
 "materials": [
  {
   "name": "player_shadow_new_mat",
   "pbrMetallicRoughness": {
    "metallicFactor": 0.0,
    "roughnessFactor": 1.0,
    "baseColorFactor": [
     0.25,
     0.25,
     0.28,
     1.0
    ]
   },
   "doubleSided": false
  }
 ],
 "bufferViews": [
  {
   "buffer": 0,
   "byteOffset": 0,
   "byteLength": 6288,
   "target": 34962
  },
  {
   "buffer": 0,
   "byteOffset": 6288,
   "byteLength": 6288,
   "target": 34962
  },
  {
   "buffer": 0,
   "byteOffset": 12576,
   "byteLength": 4192,
   "target": 34962
  },
  {
   "buffer": 0,
   "byteOffset": 16768,
   "byteLength": 4192,
   "target": 34962
  },
  {
   "buffer": 0,
   "byteOffset": 20960,
   "byteLength": 8384,
   "target": 34962
  },
  {
   "buffer": 0,
   "byteOffset": 29344,
   "byteLength": 2976,
   "target": 34963
  },
  {
   "buffer": 0,
   "byteOffset": 32320,
   "byteLength": 1216
  },
  {
   "buffer": 0,
   "byteOffset": 33536,
   "byteLength": 68
  },
  {
   "buffer": 0,
   "byteOffset": 33604,
   "byteLength": 272
  },
  {
   "buffer": 0,
   "byteOffset": 33876,
   "byteLength": 68
  },
  {
   "buffer": 0,
   "byteOffset": 33944,
   "byteLength": 272
  },
  {
   "buffer": 0,
   "byteOffset": 34216,
   "byteLength": 68
  },
  {
   "buffer": 0,
   "byteOffset": 34284,
   "byteLength": 272
  },
  {
   "buffer": 0,
   "byteOffset": 34556,
   "byteLength": 68
  },
  {
   "buffer": 0,
   "byteOffset": 34624,
   "byteLength": 272
  },
  {
   "buffer": 0,
   "byteOffset": 34896,
   "byteLength": 68
  },
  {
   "buffer": 0,
   "byteOffset": 34964,
   "byteLength": 272
  },
  {
   "buffer": 0,
   "byteOffset": 35236,
   "byteLength": 68
  },
  {
   "buffer": 0,
   "byteOffset": 35304,
   "byteLength": 272
  },
  {
   "buffer": 0,
   "byteOffset": 35576,
   "byteLength": 68
  },
  {
   "buffer": 0,
   "byteOffset": 35644,
   "byteLength": 272
  },
  {
   "buffer": 0,
   "byteOffset": 35916,
   "byteLength": 68
  },
  {
   "buffer": 0,
   "byteOffset": 35984,
   "byteLength": 272
  },
  {
   "buffer": 0,
   "byteOffset": 36256,
   "byteLength": 68
  },
  {
   "buffer": 0,
   "byteOffset": 36324,
   "byteLength": 272
  },
  {
   "buffer": 0,
   "byteOffset": 36596,
   "byteLength": 68
  },
  {
   "buffer": 0,
   "byteOffset": 36664,
   "byteLength": 272
  },
  {
   "buffer": 0,
   "byteOffset": 36936,
   "byteLength": 68
  },
  {
   "buffer": 0,
   "byteOffset": 37004,
   "byteLength": 272
  },
  {
   "buffer": 0,
   "byteOffset": 37276,
   "byteLength": 68
  },
  {
   "buffer": 0,
   "byteOffset": 37344,
   "byteLength": 272
  },
  {
   "buffer": 0,
   "byteOffset": 37616,
   "byteLength": 68
  },
  {
   "buffer": 0,
   "byteOffset": 37684,
   "byteLength": 272
  },
  {
   "buffer": 0,
   "byteOffset": 37956,
   "byteLength": 68
  },
  {
   "buffer": 0,
   "byteOffset": 38024,
   "byteLength": 272
  },
  {
   "buffer": 0,
   "byteOffset": 38296,
   "byteLength": 68
  },
  {
   "buffer": 0,
   "byteOffset": 38364,
   "byteLength": 272
  },
  {
   "buffer": 0,
   "byteOffset": 38636,
   "byteLength": 68
  },
  {
   "buffer": 0,
   "byteOffset": 38704,
   "byteLength": 204
  },
  {
   "buffer": 0,
   "byteOffset": 38908,
   "byteLength": 68
  },
  {
   "buffer": 0,
   "byteOffset": 38976,
   "byteLength": 272
  },
  {
   "buffer": 0,
   "byteOffset": 39248,
   "byteLength": 68
  },
  {
   "buffer": 0,
   "byteOffset": 39316,
   "byteLength": 272
  },
  {
   "buffer": 0,
   "byteOffset": 39588,
   "byteLength": 68
  },
  {
   "buffer": 0,
   "byteOffset": 39656,
   "byteLength": 272
  },
  {
   "buffer": 0,
   "byteOffset": 39928,
   "byteLength": 68
  },
  {
   "buffer": 0,
   "byteOffset": 39996,
   "byteLength": 272
  },
  {
   "buffer": 0,
   "byteOffset": 40268,
   "byteLength": 68
  },
  {
   "buffer": 0,
   "byteOffset": 40336,
   "byteLength": 272
  },
  {
   "buffer": 0,
   "byteOffset": 40608,
   "byteLength": 68
  },
  {
   "buffer": 0,
   "byteOffset": 40676,
   "byteLength": 272
  },
  {
   "buffer": 0,
   "byteOffset": 40948,
   "byteLength": 68
  },
  {
   "buffer": 0,
   "byteOffset": 41016,
   "byteLength": 272
  },
  {
   "buffer": 0,
   "byteOffset": 41288,
   "byteLength": 68
  },
  {
   "buffer": 0,
   "byteOffset": 41356,
   "byteLength": 272
  },
  {
   "buffer": 0,
   "byteOffset": 41628,
   "byteLength": 68
  },
  {
   "buffer": 0,
   "byteOffset": 41696,
   "byteLength": 272
  },
  {
   "buffer": 0,
   "byteOffset": 41968,
   "byteLength": 68
  },
  {
   "buffer": 0,
   "byteOffset": 42036,
   "byteLength": 272
  },
  {
   "buffer": 0,
   "byteOffset": 42308,
   "byteLength": 68
  },
  {
   "buffer": 0,
   "byteOffset": 42376,
   "byteLength": 272
  },
  {
   "buffer": 0,
   "byteOffset": 42648,
   "byteLength": 68
  },
  {
   "buffer": 0,
   "byteOffset": 42716,
   "byteLength": 272
  },
  {
   "buffer": 0,
   "byteOffset": 42988,
   "byteLength": 68
  },
  {
   "buffer": 0,
   "byteOffset": 43056,
   "byteLength": 272
  },
  {
   "buffer": 0,
   "byteOffset": 43328,
   "byteLength": 68
  },
  {
   "buffer": 0,
   "byteOffset": 43396,
   "byteLength": 272
  },
  {
   "buffer": 0,
   "byteOffset": 43668,
   "byteLength": 68
  },
  {
   "buffer": 0,
   "byteOffset": 43736,
   "byteLength": 272
  },
  {
   "buffer": 0,
   "byteOffset": 44008,
   "byteLength": 68
  },
  {
   "buffer": 0,
   "byteOffset": 44076,
   "byteLength": 272
  },
  {
   "buffer": 0,
   "byteOffset": 44348,
   "byteLength": 68
  },
  {
   "buffer": 0,
   "byteOffset": 44416,
   "byteLength": 204
  },
  {
   "buffer": 0,
   "byteOffset": 44620,
   "byteLength": 68
  },
  {
   "buffer": 0,
   "byteOffset": 44688,
   "byteLength": 272
  },
  {
   "buffer": 0,
   "byteOffset": 44960,
   "byteLength": 68
  },
  {
   "buffer": 0,
   "byteOffset": 45028,
   "byteLength": 272
  },
  {
   "buffer": 0,
   "byteOffset": 45300,
   "byteLength": 68
  },
  {
   "buffer": 0,
   "byteOffset": 45368,
   "byteLength": 272
  },
  {
   "buffer": 0,
   "byteOffset": 45640,
   "byteLength": 68
  },
  {
   "buffer": 0,
   "byteOffset": 45708,
   "byteLength": 272
  },
  {
   "buffer": 0,
   "byteOffset": 45980,
   "byteLength": 68
  },
  {
   "buffer": 0,
   "byteOffset": 46048,
   "byteLength": 272
  },
  {
   "buffer": 0,
   "byteOffset": 46320,
   "byteLength": 68
  },
  {
   "buffer": 0,
   "byteOffset": 46388,
   "byteLength": 272
  },
  {
   "buffer": 0,
   "byteOffset": 46660,
   "byteLength": 68
  },
  {
   "buffer": 0,
   "byteOffset": 46728,
   "byteLength": 272
  },
  {
   "buffer": 0,
   "byteOffset": 47000,
   "byteLength": 68
  },
  {
   "buffer": 0,
   "byteOffset": 47068,
   "byteLength": 272
  },
  {
   "buffer": 0,
   "byteOffset": 47340,
   "byteLength": 68
  },
  {
   "buffer": 0,
   "byteOffset": 47408,
   "byteLength": 272
  },
  {
   "buffer": 0,
   "byteOffset": 47680,
   "byteLength": 68
  },
  {
   "buffer": 0,
   "byteOffset": 47748,
   "byteLength": 272
  },
  {
   "buffer": 0,
   "byteOffset": 48020,
   "byteLength": 68
  },
  {
   "buffer": 0,
   "byteOffset": 48088,
   "byteLength": 272
  },
  {
   "buffer": 0,
   "byteOffset": 48360,
   "byteLength": 68
  },
  {
   "buffer": 0,
   "byteOffset": 48428,
   "byteLength": 272
  },
  {
   "buffer": 0,
   "byteOffset": 48700,
   "byteLength": 68
  },
  {
   "buffer": 0,
   "byteOffset": 48768,
   "byteLength": 272
  },
  {
   "buffer": 0,
   "byteOffset": 49040,
   "byteLength": 68
  },
  {
   "buffer": 0,
   "byteOffset": 49108,
   "byteLength": 272
  },
  {
   "buffer": 0,
   "byteOffset": 49380,
   "byteLength": 68
  },
  {
   "buffer": 0,
   "byteOffset": 49448,
   "byteLength": 272
  },
  {
   "buffer": 0,
   "byteOffset": 49720,
   "byteLength": 68
  },
  {
   "buffer": 0,
   "byteOffset": 49788,
   "byteLength": 272
  },
  {
   "buffer": 0,
   "byteOffset": 50060,
   "byteLength": 68
  },
  {
   "buffer": 0,
   "byteOffset": 50128,
   "byteLength": 204
  },
  {
   "buffer": 0,
   "byteOffset": 50332,
   "byteLength": 52
  },
  {
   "buffer": 0,
   "byteOffset": 50384,
   "byteLength": 208
  },
  {
   "buffer": 0,
   "byteOffset": 50592,
   "byteLength": 52
  },
  {
   "buffer": 0,
   "byteOffset": 50644,
   "byteLength": 208
  },
  {
   "buffer": 0,
   "byteOffset": 50852,
   "byteLength": 52
  },
  {
   "buffer": 0,
   "byteOffset": 50904,
   "byteLength": 208
  },
  {
   "buffer": 0,
   "byteOffset": 51112,
   "byteLength": 52
  },
  {
   "buffer": 0,
   "byteOffset": 51164,
   "byteLength": 208
  },
  {
   "buffer": 0,
   "byteOffset": 51372,
   "byteLength": 52
  },
  {
   "buffer": 0,
   "byteOffset": 51424,
   "byteLength": 208
  },
  {
   "buffer": 0,
   "byteOffset": 51632,
   "byteLength": 52
  },
  {
   "buffer": 0,
   "byteOffset": 51684,
   "byteLength": 208
  },
  {
   "buffer": 0,
   "byteOffset": 51892,
   "byteLength": 52
  },
  {
   "buffer": 0,
   "byteOffset": 51944,
   "byteLength": 208
  },
  {
   "buffer": 0,
   "byteOffset": 52152,
   "byteLength": 52
  },
  {
   "buffer": 0,
   "byteOffset": 52204,
   "byteLength": 208
  },
  {
   "buffer": 0,
   "byteOffset": 52412,
   "byteLength": 52
  },
  {
   "buffer": 0,
   "byteOffset": 52464,
   "byteLength": 208
  },
  {
   "buffer": 0,
   "byteOffset": 52672,
   "byteLength": 52
  },
  {
   "buffer": 0,
   "byteOffset": 52724,
   "byteLength": 208
  },
  {
   "buffer": 0,
   "byteOffset": 52932,
   "byteLength": 52
  },
  {
   "buffer": 0,
   "byteOffset": 52984,
   "byteLength": 208
  },
  {
   "buffer": 0,
   "byteOffset": 53192,
   "byteLength": 52
  },
  {
   "buffer": 0,
   "byteOffset": 53244,
   "byteLength": 208
  },
  {
   "buffer": 0,
   "byteOffset": 53452,
   "byteLength": 52
  },
  {
   "buffer": 0,
   "byteOffset": 53504,
   "byteLength": 208
  },
  {
   "buffer": 0,
   "byteOffset": 53712,
   "byteLength": 52
  },
  {
   "buffer": 0,
   "byteOffset": 53764,
   "byteLength": 208
  },
  {
   "buffer": 0,
   "byteOffset": 53972,
   "byteLength": 52
  },
  {
   "buffer": 0,
   "byteOffset": 54024,
   "byteLength": 208
  },
  {
   "buffer": 0,
   "byteOffset": 54232,
   "byteLength": 52
  },
  {
   "buffer": 0,
   "byteOffset": 54284,
   "byteLength": 208
  },
  {
   "buffer": 0,
   "byteOffset": 54492,
   "byteLength": 52
  },
  {
   "buffer": 0,
   "byteOffset": 54544,
   "byteLength": 208
  },
  {
   "buffer": 0,
   "byteOffset": 54752,
   "byteLength": 52
  },
  {
   "buffer": 0,
   "byteOffset": 54804,
   "byteLength": 156
  }
 ],
 "accessors": [
  {
   "bufferView": 0,
   "componentType": 5126,
   "count": 524,
   "type": "VEC3",
   "min": [
    -0.2740795368981863,
    2.0335745398010474e-05,
    -0.9118161648158704
   ],
   "max": [
    0.31662283034298644,
    1.8162773874618694,
    0.13999999999999999
   ]
  },
  {
   "bufferView": 1,
   "componentType": 5126,
   "count": 524,
   "type": "VEC3"
  },
  {
   "bufferView": 2,
   "componentType": 5126,
   "count": 524,
   "type": "VEC2"
  },
  {
   "bufferView": 3,
   "componentType": 5123,
   "count": 524,
   "type": "VEC4"
  },
  {
   "bufferView": 4,
   "componentType": 5126,
   "count": 524,
   "type": "VEC4"
  },
  {
   "bufferView": 5,
   "componentType": 5125,
   "count": 744,
   "type": "SCALAR"
  },
  {
   "bufferView": 6,
   "componentType": 5126,
   "count": 19,
   "type": "MAT4"
  },
  {
   "bufferView": 7,
   "componentType": 5126,
   "count": 17,
   "type": "SCALAR",
   "min": [
    0.0
   ],
   "max": [
    3.4
   ]
  },
  {
   "bufferView": 8,
   "componentType": 5126,
   "count": 17,
   "type": "VEC4"
  },
  {
   "bufferView": 9,
   "componentType": 5126,
   "count": 17,
   "type": "SCALAR",
   "min": [
    0.0
   ],
   "max": [
    3.4
   ]
  },
  {
   "bufferView": 10,
   "componentType": 5126,
   "count": 17,
   "type": "VEC4"
  },
  {
   "bufferView": 11,
   "componentType": 5126,
   "count": 17,
   "type": "SCALAR",
   "min": [
    0.0
   ],
   "max": [
    3.4
   ]
  },
  {
   "bufferView": 12,
   "componentType": 5126,
   "count": 17,
   "type": "VEC4"
  },
  {
   "bufferView": 13,
   "componentType": 5126,
   "count": 17,
   "type": "SCALAR",
   "min": [
    0.0
   ],
   "max": [
    3.4
   ]
  },
  {
   "bufferView": 14,
   "componentType": 5126,
   "count": 17,
   "type": "VEC4"
  },
  {
   "bufferView": 15,
   "componentType": 5126,
   "count": 17,
   "type": "SCALAR",
   "min": [
    0.0
   ],
   "max": [
    3.4
   ]
  },
  {
   "bufferView": 16,
   "componentType": 5126,
   "count": 17,
   "type": "VEC4"
  },
  {
   "bufferView": 17,
   "componentType": 5126,
   "count": 17,
   "type": "SCALAR",
   "min": [
    0.0
   ],
   "max": [
    3.4
   ]
  },
  {
   "bufferView": 18,
   "componentType": 5126,
   "count": 17,
   "type": "VEC4"
  },
  {
   "bufferView": 19,
   "componentType": 5126,
   "count": 17,
   "type": "SCALAR",
   "min": [
    0.0
   ],
   "max": [
    3.4
   ]
  },
  {
   "bufferView": 20,
   "componentType": 5126,
   "count": 17,
   "type": "VEC4"
  },
  {
   "bufferView": 21,
   "componentType": 5126,
   "count": 17,
   "type": "SCALAR",
   "min": [
    0.0
   ],
   "max": [
    3.4
   ]
  },
  {
   "bufferView": 22,
   "componentType": 5126,
   "count": 17,
   "type": "VEC4"
  },
  {
   "bufferView": 23,
   "componentType": 5126,
   "count": 17,
   "type": "SCALAR",
   "min": [
    0.0
   ],
   "max": [
    3.4
   ]
  },
  {
   "bufferView": 24,
   "componentType": 5126,
   "count": 17,
   "type": "VEC4"
  },
  {
   "bufferView": 25,
   "componentType": 5126,
   "count": 17,
   "type": "SCALAR",
   "min": [
    0.0
   ],
   "max": [
    3.4
   ]
  },
  {
   "bufferView": 26,
   "componentType": 5126,
   "count": 17,
   "type": "VEC4"
  },
  {
   "bufferView": 27,
   "componentType": 5126,
   "count": 17,
   "type": "SCALAR",
   "min": [
    0.0
   ],
   "max": [
    3.4
   ]
  },
  {
   "bufferView": 28,
   "componentType": 5126,
   "count": 17,
   "type": "VEC4"
  },
  {
   "bufferView": 29,
   "componentType": 5126,
   "count": 17,
   "type": "SCALAR",
   "min": [
    0.0
   ],
   "max": [
    3.4
   ]
  },
  {
   "bufferView": 30,
   "componentType": 5126,
   "count": 17,
   "type": "VEC4"
  },
  {
   "bufferView": 31,
   "componentType": 5126,
   "count": 17,
   "type": "SCALAR",
   "min": [
    0.0
   ],
   "max": [
    3.4
   ]
  },
  {
   "bufferView": 32,
   "componentType": 5126,
   "count": 17,
   "type": "VEC4"
  },
  {
   "bufferView": 33,
   "componentType": 5126,
   "count": 17,
   "type": "SCALAR",
   "min": [
    0.0
   ],
   "max": [
    3.4
   ]
  },
  {
   "bufferView": 34,
   "componentType": 5126,
   "count": 17,
   "type": "VEC4"
  },
  {
   "bufferView": 35,
   "componentType": 5126,
   "count": 17,
   "type": "SCALAR",
   "min": [
    0.0
   ],
   "max": [
    3.4
   ]
  },
  {
   "bufferView": 36,
   "componentType": 5126,
   "count": 17,
   "type": "VEC4"
  },
  {
   "bufferView": 37,
   "componentType": 5126,
   "count": 17,
   "type": "SCALAR",
   "min": [
    0.0
   ],
   "max": [
    3.4
   ]
  },
  {
   "bufferView": 38,
   "componentType": 5126,
   "count": 17,
   "type": "VEC3"
  },
  {
   "bufferView": 39,
   "componentType": 5126,
   "count": 17,
   "type": "SCALAR",
   "min": [
    0.0
   ],
   "max": [
    1.0
   ]
  },
  {
   "bufferView": 40,
   "componentType": 5126,
   "count": 17,
   "type": "VEC4"
  },
  {
   "bufferView": 41,
   "componentType": 5126,
   "count": 17,
   "type": "SCALAR",
   "min": [
    0.0
   ],
   "max": [
    1.0
   ]
  },
  {
   "bufferView": 42,
   "componentType": 5126,
   "count": 17,
   "type": "VEC4"
  },
  {
   "bufferView": 43,
   "componentType": 5126,
   "count": 17,
   "type": "SCALAR",
   "min": [
    0.0
   ],
   "max": [
    1.0
   ]
  },
  {
   "bufferView": 44,
   "componentType": 5126,
   "count": 17,
   "type": "VEC4"
  },
  {
   "bufferView": 45,
   "componentType": 5126,
   "count": 17,
   "type": "SCALAR",
   "min": [
    0.0
   ],
   "max": [
    1.0
   ]
  },
  {
   "bufferView": 46,
   "componentType": 5126,
   "count": 17,
   "type": "VEC4"
  },
  {
   "bufferView": 47,
   "componentType": 5126,
   "count": 17,
   "type": "SCALAR",
   "min": [
    0.0
   ],
   "max": [
    1.0
   ]
  },
  {
   "bufferView": 48,
   "componentType": 5126,
   "count": 17,
   "type": "VEC4"
  },
  {
   "bufferView": 49,
   "componentType": 5126,
   "count": 17,
   "type": "SCALAR",
   "min": [
    0.0
   ],
   "max": [
    1.0
   ]
  },
  {
   "bufferView": 50,
   "componentType": 5126,
   "count": 17,
   "type": "VEC4"
  },
  {
   "bufferView": 51,
   "componentType": 5126,
   "count": 17,
   "type": "SCALAR",
   "min": [
    0.0
   ],
   "max": [
    1.0
   ]
  },
  {
   "bufferView": 52,
   "componentType": 5126,
   "count": 17,
   "type": "VEC4"
  },
  {
   "bufferView": 53,
   "componentType": 5126,
   "count": 17,
   "type": "SCALAR",
   "min": [
    0.0
   ],
   "max": [
    1.0
   ]
  },
  {
   "bufferView": 54,
   "componentType": 5126,
   "count": 17,
   "type": "VEC4"
  },
  {
   "bufferView": 55,
   "componentType": 5126,
   "count": 17,
   "type": "SCALAR",
   "min": [
    0.0
   ],
   "max": [
    1.0
   ]
  },
  {
   "bufferView": 56,
   "componentType": 5126,
   "count": 17,
   "type": "VEC4"
  },
  {
   "bufferView": 57,
   "componentType": 5126,
   "count": 17,
   "type": "SCALAR",
   "min": [
    0.0
   ],
   "max": [
    1.0
   ]
  },
  {
   "bufferView": 58,
   "componentType": 5126,
   "count": 17,
   "type": "VEC4"
  },
  {
   "bufferView": 59,
   "componentType": 5126,
   "count": 17,
   "type": "SCALAR",
   "min": [
    0.0
   ],
   "max": [
    1.0
   ]
  },
  {
   "bufferView": 60,
   "componentType": 5126,
   "count": 17,
   "type": "VEC4"
  },
  {
   "bufferView": 61,
   "componentType": 5126,
   "count": 17,
   "type": "SCALAR",
   "min": [
    0.0
   ],
   "max": [
    1.0
   ]
  },
  {
   "bufferView": 62,
   "componentType": 5126,
   "count": 17,
   "type": "VEC4"
  },
  {
   "bufferView": 63,
   "componentType": 5126,
   "count": 17,
   "type": "SCALAR",
   "min": [
    0.0
   ],
   "max": [
    1.0
   ]
  },
  {
   "bufferView": 64,
   "componentType": 5126,
   "count": 17,
   "type": "VEC4"
  },
  {
   "bufferView": 65,
   "componentType": 5126,
   "count": 17,
   "type": "SCALAR",
   "min": [
    0.0
   ],
   "max": [
    1.0
   ]
  },
  {
   "bufferView": 66,
   "componentType": 5126,
   "count": 17,
   "type": "VEC4"
  },
  {
   "bufferView": 67,
   "componentType": 5126,
   "count": 17,
   "type": "SCALAR",
   "min": [
    0.0
   ],
   "max": [
    1.0
   ]
  },
  {
   "bufferView": 68,
   "componentType": 5126,
   "count": 17,
   "type": "VEC4"
  },
  {
   "bufferView": 69,
   "componentType": 5126,
   "count": 17,
   "type": "SCALAR",
   "min": [
    0.0
   ],
   "max": [
    1.0
   ]
  },
  {
   "bufferView": 70,
   "componentType": 5126,
   "count": 17,
   "type": "VEC4"
  },
  {
   "bufferView": 71,
   "componentType": 5126,
   "count": 17,
   "type": "SCALAR",
   "min": [
    0.0
   ],
   "max": [
    1.0
   ]
  },
  {
   "bufferView": 72,
   "componentType": 5126,
   "count": 17,
   "type": "VEC3"
  },
  {
   "bufferView": 73,
   "componentType": 5126,
   "count": 17,
   "type": "SCALAR",
   "min": [
    0.0
   ],
   "max": [
    0.68
   ]
  },
  {
   "bufferView": 74,
   "componentType": 5126,
   "count": 17,
   "type": "VEC4"
  },
  {
   "bufferView": 75,
   "componentType": 5126,
   "count": 17,
   "type": "SCALAR",
   "min": [
    0.0
   ],
   "max": [
    0.68
   ]
  },
  {
   "bufferView": 76,
   "componentType": 5126,
   "count": 17,
   "type": "VEC4"
  },
  {
   "bufferView": 77,
   "componentType": 5126,
   "count": 17,
   "type": "SCALAR",
   "min": [
    0.0
   ],
   "max": [
    0.68
   ]
  },
  {
   "bufferView": 78,
   "componentType": 5126,
   "count": 17,
   "type": "VEC4"
  },
  {
   "bufferView": 79,
   "componentType": 5126,
   "count": 17,
   "type": "SCALAR",
   "min": [
    0.0
   ],
   "max": [
    0.68
   ]
  },
  {
   "bufferView": 80,
   "componentType": 5126,
   "count": 17,
   "type": "VEC4"
  },
  {
   "bufferView": 81,
   "componentType": 5126,
   "count": 17,
   "type": "SCALAR",
   "min": [
    0.0
   ],
   "max": [
    0.68
   ]
  },
  {
   "bufferView": 82,
   "componentType": 5126,
   "count": 17,
   "type": "VEC4"
  },
  {
   "bufferView": 83,
   "componentType": 5126,
   "count": 17,
   "type": "SCALAR",
   "min": [
    0.0
   ],
   "max": [
    0.68
   ]
  },
  {
   "bufferView": 84,
   "componentType": 5126,
   "count": 17,
   "type": "VEC4"
  },
  {
   "bufferView": 85,
   "componentType": 5126,
   "count": 17,
   "type": "SCALAR",
   "min": [
    0.0
   ],
   "max": [
    0.68
   ]
  },
  {
   "bufferView": 86,
   "componentType": 5126,
   "count": 17,
   "type": "VEC4"
  },
  {
   "bufferView": 87,
   "componentType": 5126,
   "count": 17,
   "type": "SCALAR",
   "min": [
    0.0
   ],
   "max": [
    0.68
   ]
  },
  {
   "bufferView": 88,
   "componentType": 5126,
   "count": 17,
   "type": "VEC4"
  },
  {
   "bufferView": 89,
   "componentType": 5126,
   "count": 17,
   "type": "SCALAR",
   "min": [
    0.0
   ],
   "max": [
    0.68
   ]
  },
  {
   "bufferView": 90,
   "componentType": 5126,
   "count": 17,
   "type": "VEC4"
  },
  {
   "bufferView": 91,
   "componentType": 5126,
   "count": 17,
   "type": "SCALAR",
   "min": [
    0.0
   ],
   "max": [
    0.68
   ]
  },
  {
   "bufferView": 92,
   "componentType": 5126,
   "count": 17,
   "type": "VEC4"
  },
  {
   "bufferView": 93,
   "componentType": 5126,
   "count": 17,
   "type": "SCALAR",
   "min": [
    0.0
   ],
   "max": [
    0.68
   ]
  },
  {
   "bufferView": 94,
   "componentType": 5126,
   "count": 17,
   "type": "VEC4"
  },
  {
   "bufferView": 95,
   "componentType": 5126,
   "count": 17,
   "type": "SCALAR",
   "min": [
    0.0
   ],
   "max": [
    0.68
   ]
  },
  {
   "bufferView": 96,
   "componentType": 5126,
   "count": 17,
   "type": "VEC4"
  },
  {
   "bufferView": 97,
   "componentType": 5126,
   "count": 17,
   "type": "SCALAR",
   "min": [
    0.0
   ],
   "max": [
    0.68
   ]
  },
  {
   "bufferView": 98,
   "componentType": 5126,
   "count": 17,
   "type": "VEC4"
  },
  {
   "bufferView": 99,
   "componentType": 5126,
   "count": 17,
   "type": "SCALAR",
   "min": [
    0.0
   ],
   "max": [
    0.68
   ]
  },
  {
   "bufferView": 100,
   "componentType": 5126,
   "count": 17,
   "type": "VEC4"
  },
  {
   "bufferView": 101,
   "componentType": 5126,
   "count": 17,
   "type": "SCALAR",
   "min": [
    0.0
   ],
   "max": [
    0.68
   ]
  },
  {
   "bufferView": 102,
   "componentType": 5126,
   "count": 17,
   "type": "VEC4"
  },
  {
   "bufferView": 103,
   "componentType": 5126,
   "count": 17,
   "type": "SCALAR",
   "min": [
    0.0
   ],
   "max": [
    0.68
   ]
  },
  {
   "bufferView": 104,
   "componentType": 5126,
   "count": 17,
   "type": "VEC4"
  },
  {
   "bufferView": 105,
   "componentType": 5126,
   "count": 17,
   "type": "SCALAR",
   "min": [
    0.0
   ],
   "max": [
    0.68
   ]
  },
  {
   "bufferView": 106,
   "componentType": 5126,
   "count": 17,
   "type": "VEC3"
  },
  {
   "bufferView": 107,
   "componentType": 5126,
   "count": 13,
   "type": "SCALAR",
   "min": [
    0.0
   ],
   "max": [
    2.6
   ]
  },
  {
   "bufferView": 108,
   "componentType": 5126,
   "count": 13,
   "type": "VEC4"
  },
  {
   "bufferView": 109,
   "componentType": 5126,
   "count": 13,
   "type": "SCALAR",
   "min": [
    0.0
   ],
   "max": [
    2.6
   ]
  },
  {
   "bufferView": 110,
   "componentType": 5126,
   "count": 13,
   "type": "VEC4"
  },
  {
   "bufferView": 111,
   "componentType": 5126,
   "count": 13,
   "type": "SCALAR",
   "min": [
    0.0
   ],
   "max": [
    2.6
   ]
  },
  {
   "bufferView": 112,
   "componentType": 5126,
   "count": 13,
   "type": "VEC4"
  },
  {
   "bufferView": 113,
   "componentType": 5126,
   "count": 13,
   "type": "SCALAR",
   "min": [
    0.0
   ],
   "max": [
    2.6
   ]
  },
  {
   "bufferView": 114,
   "componentType": 5126,
   "count": 13,
   "type": "VEC4"
  },
  {
   "bufferView": 115,
   "componentType": 5126,
   "count": 13,
   "type": "SCALAR",
   "min": [
    0.0
   ],
   "max": [
    2.6
   ]
  },
  {
   "bufferView": 116,
   "componentType": 5126,
   "count": 13,
   "type": "VEC4"
  },
  {
   "bufferView": 117,
   "componentType": 5126,
   "count": 13,
   "type": "SCALAR",
   "min": [
    0.0
   ],
   "max": [
    2.6
   ]
  },
  {
   "bufferView": 118,
   "componentType": 5126,
   "count": 13,
   "type": "VEC4"
  },
  {
   "bufferView": 119,
   "componentType": 5126,
   "count": 13,
   "type": "SCALAR",
   "min": [
    0.0
   ],
   "max": [
    2.6
   ]
  },
  {
   "bufferView": 120,
   "componentType": 5126,
   "count": 13,
   "type": "VEC4"
  },
  {
   "bufferView": 121,
   "componentType": 5126,
   "count": 13,
   "type": "SCALAR",
   "min": [
    0.0
   ],
   "max": [
    2.6
   ]
  },
  {
   "bufferView": 122,
   "componentType": 5126,
   "count": 13,
   "type": "VEC4"
  },
  {
   "bufferView": 123,
   "componentType": 5126,
   "count": 13,
   "type": "SCALAR",
   "min": [
    0.0
   ],
   "max": [
    2.6
   ]
  },
  {
   "bufferView": 124,
   "componentType": 5126,
   "count": 13,
   "type": "VEC4"
  },
  {
   "bufferView": 125,
   "componentType": 5126,
   "count": 13,
   "type": "SCALAR",
   "min": [
    0.0
   ],
   "max": [
    2.6
   ]
  },
  {
   "bufferView": 126,
   "componentType": 5126,
   "count": 13,
   "type": "VEC4"
  },
  {
   "bufferView": 127,
   "componentType": 5126,
   "count": 13,
   "type": "SCALAR",
   "min": [
    0.0
   ],
   "max": [
    2.6
   ]
  },
  {
   "bufferView": 128,
   "componentType": 5126,
   "count": 13,
   "type": "VEC4"
  },
  {
   "bufferView": 129,
   "componentType": 5126,
   "count": 13,
   "type": "SCALAR",
   "min": [
    0.0
   ],
   "max": [
    2.6
   ]
  },
  {
   "bufferView": 130,
   "componentType": 5126,
   "count": 13,
   "type": "VEC4"
  },
  {
   "bufferView": 131,
   "componentType": 5126,
   "count": 13,
   "type": "SCALAR",
   "min": [
    0.0
   ],
   "max": [
    2.6
   ]
  },
  {
   "bufferView": 132,
   "componentType": 5126,
   "count": 13,
   "type": "VEC4"
  },
  {
   "bufferView": 133,
   "componentType": 5126,
   "count": 13,
   "type": "SCALAR",
   "min": [
    0.0
   ],
   "max": [
    2.6
   ]
  },
  {
   "bufferView": 134,
   "componentType": 5126,
   "count": 13,
   "type": "VEC4"
  },
  {
   "bufferView": 135,
   "componentType": 5126,
   "count": 13,
   "type": "SCALAR",
   "min": [
    0.0
   ],
   "max": [
    2.6
   ]
  },
  {
   "bufferView": 136,
   "componentType": 5126,
   "count": 13,
   "type": "VEC4"
  },
  {
   "bufferView": 137,
   "componentType": 5126,
   "count": 13,
   "type": "SCALAR",
   "min": [
    0.0
   ],
   "max": [
    2.6
   ]
  },
  {
   "bufferView": 138,
   "componentType": 5126,
   "count": 13,
   "type": "VEC4"
  },
  {
   "bufferView": 139,
   "componentType": 5126,
   "count": 13,
   "type": "SCALAR",
   "min": [
    0.0
   ],
   "max": [
    2.6
   ]
  },
  {
   "bufferView": 140,
   "componentType": 5126,
   "count": 13,
   "type": "VEC4"
  },
  {
   "bufferView": 141,
   "componentType": 5126,
   "count": 13,
   "type": "SCALAR",
   "min": [
    0.0
   ],
   "max": [
    2.6
   ]
  },
  {
   "bufferView": 142,
   "componentType": 5126,
   "count": 13,
   "type": "VEC3"
  }
 ],
 "buffers": [
  {
   "byteLength": 54960,
   "uri": "data:application/octet-stream;base64,"
  }
 ],
 "animations": [
  {
   "name": "idle",
   "samplers": [
    {
     "input": 7,
     "output": 8,
     "interpolation": "LINEAR"
    },
    {
     "input": 9,
     "output": 10,
     "interpolation": "LINEAR"
    },
    {
     "input": 11,
     "output": 12,
     "interpolation": "LINEAR"
    },
    {
     "input": 13,
     "output": 14,
     "interpolation": "LINEAR"
    },
    {
     "input": 15,
     "output": 16,
     "interpolation": "LINEAR"
    },
    {
     "input": 17,
     "output": 18,
     "interpolation": "LINEAR"
    },
    {
     "input": 19,
     "output": 20,
     "interpolation": "LINEAR"
    },
    {
     "input": 21,
     "output": 22,
     "interpolation": "LINEAR"
    },
    {
     "input": 23,
     "output": 24,
     "interpolation": "LINEAR"
    },
    {
     "input": 25,
     "output": 26,
     "interpolation": "LINEAR"
    },
    {
     "input": 27,
     "output": 28,
     "interpolation": "LINEAR"
    },
    {
     "input": 29,
     "output": 30,
     "interpolation": "LINEAR"
    },
    {
     "input": 31,
     "output": 32,
     "interpolation": "LINEAR"
    },
    {
     "input": 33,
     "output": 34,
     "interpolation": "LINEAR"
    },
    {
     "input": 35,
     "output": 36,
     "interpolation": "LINEAR"
    },
    {
     "input": 37,
     "output": 38,
     "interpolation": "LINEAR"
    }
   ],
   "channels": [
    {
     "sampler": 0,
     "target": {
      "node": 10,
      "path": "rotation"
     }
    },
    {
     "sampler": 1,
     "target": {
      "node": 7,
      "path": "rotation"
     }
    },
    {
     "sampler": 2,
     "target": {
      "node": 4,
      "path": "rotation"
     }
    },
    {
     "sampler": 3,
     "target": {
      "node": 19,
      "path": "rotation"
     }
    },
    {
     "sampler": 4,
     "target": {
      "node": 16,
      "path": "rotation"
     }
    },
    {
     "sampler": 5,
     "target": {
      "node": 6,
      "path": "rotation"
     }
    },
    {
     "sampler": 6,
     "target": {
      "node": 2,
      "path": "rotation"
     }
    },
    {
     "sampler": 7,
     "target": {
      "node": 18,
      "path": "rotation"
     }
    },
    {
     "sampler": 8,
     "target": {
      "node": 17,
      "path": "rotation"
     }
    },
    {
     "sampler": 9,
     "target": {
      "node": 15,
      "path": "rotation"
     }
    },
    {
     "sampler": 10,
     "target": {
      "node": 14,
      "path": "rotation"
     }
    },
    {
     "sampler": 11,
     "target": {
      "node": 5,
      "path": "rotation"
     }
    },
    {
     "sampler": 12,
     "target": {
      "node": 1,
      "path": "rotation"
     }
    },
    {
     "sampler": 13,
     "target": {
      "node": 3,
      "path": "rotation"
     }
    },
    {
     "sampler": 14,
     "target": {
      "node": 13,
      "path": "rotation"
     }
    },
    {
     "sampler": 15,
     "target": {
      "node": 1,
      "path": "translation"
     }
    }
   ]
  },
  {
   "name": "walk",
   "samplers": [
    {
     "input": 39,
     "output": 40,
     "interpolation": "LINEAR"
    },
    {
     "input": 41,
     "output": 42,
     "interpolation": "LINEAR"
    },
    {
     "input": 43,
     "output": 44,
     "interpolation": "LINEAR"
    },
    {
     "input": 45,
     "output": 46,
     "interpolation": "LINEAR"
    },
    {
     "input": 47,
     "output": 48,
     "interpolation": "LINEAR"
    },
    {
     "input": 49,
     "output": 50,
     "interpolation": "LINEAR"
    },
    {
     "input": 51,
     "output": 52,
     "interpolation": "LINEAR"
    },
    {
     "input": 53,
     "output": 54,
     "interpolation": "LINEAR"
    },
    {
     "input": 55,
     "output": 56,
     "interpolation": "LINEAR"
    },
    {
     "input": 57,
     "output": 58,
     "interpolation": "LINEAR"
    },
    {
     "input": 59,
     "output": 60,
     "interpolation": "LINEAR"
    },
    {
     "input": 61,
     "output": 62,
     "interpolation": "LINEAR"
    },
    {
     "input": 63,
     "output": 64,
     "interpolation": "LINEAR"
    },
    {
     "input": 65,
     "output": 66,
     "interpolation": "LINEAR"
    },
    {
     "input": 67,
     "output": 68,
     "interpolation": "LINEAR"
    },
    {
     "input": 69,
     "output": 70,
     "interpolation": "LINEAR"
    },
    {
     "input": 71,
     "output": 72,
     "interpolation": "LINEAR"
    }
   ],
   "channels": [
    {
     "sampler": 0,
     "target": {
      "node": 11,
      "path": "rotation"
     }
    },
    {
     "sampler": 1,
     "target": {
      "node": 10,
      "path": "rotation"
     }
    },
    {
     "sampler": 2,
     "target": {
      "node": 8,
      "path": "rotation"
     }
    },
    {
     "sampler": 3,
     "target": {
      "node": 7,
      "path": "rotation"
     }
    },
    {
     "sampler": 4,
     "target": {
      "node": 4,
      "path": "rotation"
     }
    },
    {
     "sampler": 5,
     "target": {
      "node": 19,
      "path": "rotation"
     }
    },
    {
     "sampler": 6,
     "target": {
      "node": 16,
      "path": "rotation"
     }
    },
    {
     "sampler": 7,
     "target": {
      "node": 6,
      "path": "rotation"
     }
    },
    {
     "sampler": 8,
     "target": {
      "node": 2,
      "path": "rotation"
     }
    },
    {
     "sampler": 9,
     "target": {
      "node": 18,
      "path": "rotation"
     }
    },
    {
     "sampler": 10,
     "target": {
      "node": 17,
      "path": "rotation"
     }
    },
    {
     "sampler": 11,
     "target": {
      "node": 15,
      "path": "rotation"
     }
    },
    {
     "sampler": 12,
     "target": {
      "node": 14,
      "path": "rotation"
     }
    },
    {
     "sampler": 13,
     "target": {
      "node": 5,
      "path": "rotation"
     }
    },
    {
     "sampler": 14,
     "target": {
      "node": 1,
      "path": "rotation"
     }
    },
    {
     "sampler": 15,
     "target": {
      "node": 3,
      "path": "rotation"
     }
    },
    {
     "sampler": 16,
     "target": {
      "node": 1,
      "path": "translation"
     }
    }
   ]
  },
  {
   "name": "run",
   "samplers": [
    {
     "input": 73,
     "output": 74,
     "interpolation": "LINEAR"
    },
    {
     "input": 75,
     "output": 76,
     "interpolation": "LINEAR"
    },
    {
     "input": 77,
     "output": 78,
     "interpolation": "LINEAR"
    },
    {
     "input": 79,
     "output": 80,
     "interpolation": "LINEAR"
    },
    {
     "input": 81,
     "output": 82,
     "interpolation": "LINEAR"
    },
    {
     "input": 83,
     "output": 84,
     "interpolation": "LINEAR"
    },
    {
     "input": 85,
     "output": 86,
     "interpolation": "LINEAR"
    },
    {
     "input": 87,
     "output": 88,
     "interpolation": "LINEAR"
    },
    {
     "input": 89,
     "output": 90,
     "interpolation": "LINEAR"
    },
    {
     "input": 91,
     "output": 92,
     "interpolation": "LINEAR"
    },
    {
     "input": 93,
     "output": 94,
     "interpolation": "LINEAR"
    },
    {
     "input": 95,
     "output": 96,
     "interpolation": "LINEAR"
    },
    {
     "input": 97,
     "output": 98,
     "interpolation": "LINEAR"
    },
    {
     "input": 99,
     "output": 100,
     "interpolation": "LINEAR"
    },
    {
     "input": 101,
     "output": 102,
     "interpolation": "LINEAR"
    },
    {
     "input": 103,
     "output": 104,
     "interpolation": "LINEAR"
    },
    {
     "input": 105,
     "output": 106,
     "interpolation": "LINEAR"
    }
   ],
   "channels": [
    {
     "sampler": 0,
     "target": {
      "node": 11,
      "path": "rotation"
     }
    },
    {
     "sampler": 1,
     "target": {
      "node": 10,
      "path": "rotation"
     }
    },
    {
     "sampler": 2,
     "target": {
      "node": 8,
      "path": "rotation"
     }
    },
    {
     "sampler": 3,
     "target": {
      "node": 7,
      "path": "rotation"
     }
    },
    {
     "sampler": 4,
     "target": {
      "node": 4,
      "path": "rotation"
     }
    },
    {
     "sampler": 5,
     "target": {
      "node": 19,
      "path": "rotation"
     }
    },
    {
     "sampler": 6,
     "target": {
      "node": 16,
      "path": "rotation"
     }
    },
    {
     "sampler": 7,
     "target": {
      "node": 6,
      "path": "rotation"
     }
    },
    {
     "sampler": 8,
     "target": {
      "node": 2,
      "path": "rotation"
     }
    },
    {
     "sampler": 9,
     "target": {
      "node": 18,
      "path": "rotation"
     }
    },
    {
     "sampler": 10,
     "target": {
      "node": 17,
      "path": "rotation"
     }
    },
    {
     "sampler": 11,
     "target": {
      "node": 15,
      "path": "rotation"
     }
    },
    {
     "sampler": 12,
     "target": {
      "node": 14,
      "path": "rotation"
     }
    },
    {
     "sampler": 13,
     "target": {
      "node": 5,
      "path": "rotation"
     }
    },
    {
     "sampler": 14,
     "target": {
      "node": 1,
      "path": "rotation"
     }
    },
    {
     "sampler": 15,
     "target": {
      "node": 3,
      "path": "rotation"
     }
    },
    {
     "sampler": 16,
     "target": {
      "node": 1,
      "path": "translation"
     }
    }
   ]
  },
  {
   "name": "aim",
   "samplers": [
    {
     "input": 107,
     "output": 108,
     "interpolation": "LINEAR"
    },
    {
     "input": 109,
     "output": 110,
     "interpolation": "LINEAR"
    },
    {
     "input": 111,
     "output": 112,
     "interpolation": "LINEAR"
    },
    {
     "input": 113,
     "output": 114,
     "interpolation": "LINEAR"
    },
    {
     "input": 115,
     "output": 116,
     "interpolation": "LINEAR"
    },
    {
     "input": 117,
     "output": 118,
     "interpolation": "LINEAR"
    },
    {
     "input": 119,
     "output": 120,
     "interpolation": "LINEAR"
    },
    {
     "input": 121,
     "output": 122,
     "interpolation": "LINEAR"
    },
    {
     "input": 123,
     "output": 124,
     "interpolation": "LINEAR"
    },
    {
     "input": 125,
     "output": 126,
     "interpolation": "LINEAR"
    },
    {
     "input": 127,
     "output": 128,
     "interpolation": "LINEAR"
    },
    {
     "input": 129,
     "output": 130,
     "interpolation": "LINEAR"
    },
    {
     "input": 131,
     "output": 132,
     "interpolation": "LINEAR"
    },
    {
     "input": 133,
     "output": 134,
     "interpolation": "LINEAR"
    },
    {
     "input": 135,
     "output": 136,
     "interpolation": "LINEAR"
    },
    {
     "input": 137,
     "output": 138,
     "interpolation": "LINEAR"
    },
    {
     "input": 139,
     "output": 140,
     "interpolation": "LINEAR"
    },
    {
     "input": 141,
     "output": 142,
     "interpolation": "LINEAR"
    }
   ],
   "channels": [
    {
     "sampler": 0,
     "target": {
      "node": 11,
      "path": "rotation"
     }
    },
    {
     "sampler": 1,
     "target": {
      "node": 10,
      "path": "rotation"
     }
    },
    {
     "sampler": 2,
     "target": {
      "node": 8,
      "path": "rotation"
     }
    },
    {
     "sampler": 3,
     "target": {
      "node": 7,
      "path": "rotation"
     }
    },
    {
     "sampler": 4,
     "target": {
      "node": 4,
      "path": "rotation"
     }
    },
    {
     "sampler": 5,
     "target": {
      "node": 19,
      "path": "rotation"
     }
    },
    {
     "sampler": 6,
     "target": {
      "node": 16,
      "path": "rotation"
     }
    },
    {
     "sampler": 7,
     "target": {
      "node": 6,
      "path": "rotation"
     }
    },
    {
     "sampler": 8,
     "target": {
      "node": 2,
      "path": "rotation"
     }
    },
    {
     "sampler": 9,
     "target": {
      "node": 18,
      "path": "rotation"
     }
    },
    {
     "sampler": 10,
     "target": {
      "node": 17,
      "path": "rotation"
     }
    },
    {
     "sampler": 11,
     "target": {
      "node": 15,
      "path": "rotation"
     }
    },
    {
     "sampler": 12,
     "target": {
      "node": 14,
      "path": "rotation"
     }
    },
    {
     "sampler": 13,
     "target": {
      "node": 5,
      "path": "rotation"
     }
    },
    {
     "sampler": 14,
     "target": {
      "node": 1,
      "path": "rotation"
     }
    },
    {
     "sampler": 15,
     "target": {
      "node": 3,
      "path": "rotation"
     }
    },
    {
     "sampler": 16,
     "target": {
      "node": 13,
      "path": "rotation"
     }
    },
    {
     "sampler": 17,
     "target": {
      "node": 1,
      "path": "translation"
     }
    }
   ]
  }
 ]
}