{
 "asset": {
  "version": "2.0",
  "generator": "parnitha tools/gen_animals_new.py"
 },
 "scene": 0,
 "scenes": [
  {
   "name": "baby_deer_new",
   "nodes": [
    0,
    1
   ]
  }
 ],
 "nodes": [
  {
   "name": "baby_deer_new_mesh",
   "mesh": 0,
   "skin": 0
  },
  {
   "name": "root",
   "translation": [
    0.0,
    0.0,
    0.0
   ],
   "children": [
    2
   ]
  },
  {
   "name": "spine",
   "translation": [
    0.0,
    0.3732,
    0.35
   ],
   "children": [
    3,
    6,
    9,
    13
   ]
  },
  {
   "name": "chest",
   "translation": [
    0.0,
    0.025000000000000022,
    -0.63
   ],
   "children": [
    4,
    7,
    11
   ]
  },
  {
   "name": "neck",
   "translation": [
    0.0,
    0.034999999999999976,
    0.0
   ],
   "children": [
    5
   ]
  },
  {
   "name": "head",
   "translation": [
    0.0,
    0.09360000000000007,
    -0.09360000000000002
   ]
  },
  {
   "name": "tail",
   "translation": [
    0.0,
    0.010000000000000009,
    -0.0050000000000000044
   ]
  },
  {
   "name": "leg_fl_upper",
   "translation": [
    0.0825,
    -0.05499999999999999,
    0.10000000000000003
   ],
   "children": [
    8
   ]
  },
  {
   "name": "leg_fl_lower",
   "translation": [
    0.0,
    -0.154,
    0.0
   ]
  },
  {
   "name": "leg_bl_upper",
   "translation": [
    0.0925,
    -0.02999999999999997,
    -0.10999999999999999
   ],
   "children": [
    10
   ]
  },
  {
   "name": "leg_bl_lower",
   "translation": [
    0.0,
    -0.16280000000000003,
    0.0
   ]
  },
  {
   "name": "leg_fr_upper",
   "translation": [
    -0.0825,
    -0.05499999999999999,
    0.10000000000000003
   ],
   "children": [
    12
   ]
  },
  {
   "name": "leg_fr_lower",
   "translation": [
    0.0,
    -0.154,
    0.0
   ]
  },
  {
   "name": "leg_br_upper",
   "translation": [
    -0.0925,
    -0.02999999999999997,
    -0.10999999999999999
   ],
   "children": [
    14
   ]
  },
  {
   "name": "leg_br_lower",
   "translation": [
    0.0,
    -0.16280000000000003,
    0.0
   ]
  }
 ],
 "meshes": [
  {
   "name": "baby_deer_new",
   "primitives": [
    {
     "attributes": {
      "POSITION": 0,
      "NORMAL": 1,
      "TEXCOORD_0": 2,
      "JOINTS_0": 3,
      "WEIGHTS_0": 4
     },
     "indices": 5,
     "material": 0,
     "mode": 4
    }
   ]
  }
 ],
 "skins": [
  {
   "name": "baby_deer_new_skin",
   "inverseBindMatrices": 6,
   "skeleton": 1,
   "joints": [
    1,
    2,
    3,
    4,
    5,
    6,
    7,
    8,
    9,
    10,
    11,
    12,
    13,
    14
   ]
  }
 ],
 "materials": [
  {
   "name": "baby_deer_new_mat",
   "pbrMetallicRoughness": {
    "metallicFactor": 0.0,
    "roughnessFactor": 1.0,
    "baseColorTexture": {
     "index": 0
    }
   },
   "doubleSided": false
  }
 ],
 "bufferViews": [
  {
   "buffer": 0,
   "byteOffset": 0,
   "byteLength": 4896,
   "target": 34962
  },
  {
   "buffer": 0,
   "byteOffset": 4896,
   "byteLength": 4896,
   "target": 34962
  },
  {
   "buffer": 0,
   "byteOffset": 9792,
   "byteLength": 3264,
   "target": 34962
  },
  {
   "buffer": 0,
   "byteOffset": 13056,
   "byteLength": 3264,
   "target": 34962
  },
  {
   "buffer": 0,
   "byteOffset": 16320,
   "byteLength": 6528,
   "target": 34962
  },
  {
   "buffer": 0,
   "byteOffset": 22848,
   "byteLength": 2400,
   "target": 34963
  },
  {
   "buffer": 0,
   "byteOffset": 25248,
   "byteLength": 896
  },
  {
   "buffer": 0,
   "byteOffset": 26144,
   "byteLength": 68
  },
  {
   "buffer": 0,
   "byteOffset": 26212,
   "byteLength": 272
  },
  {
   "buffer": 0,
   "byteOffset": 26484,
   "byteLength": 68
  },
  {
   "buffer": 0,
   "byteOffset": 26552,
   "byteLength": 272
  },
  {
   "buffer": 0,
   "byteOffset": 26824,
   "byteLength": 68
  },
  {
   "buffer": 0,
   "byteOffset": 26892,
   "byteLength": 272
  },
  {
   "buffer": 0,
   "byteOffset": 27164,
   "byteLength": 68
  },
  {
   "buffer": 0,
   "byteOffset": 27232,
   "byteLength": 272
  },
  {
   "buffer": 0,
   "byteOffset": 27504,
   "byteLength": 68
  },
  {
   "buffer": 0,
   "byteOffset": 27572,
   "byteLength": 272
  },
  {
   "buffer": 0,
   "byteOffset": 27844,
   "byteLength": 68
  },
  {
   "buffer": 0,
   "byteOffset": 27912,
   "byteLength": 272
  },
  {
   "buffer": 0,
   "byteOffset": 28184,
   "byteLength": 68
  },
  {
   "buffer": 0,
   "byteOffset": 28252,
   "byteLength": 272
  },
  {
   "buffer": 0,
   "byteOffset": 28524,
   "byteLength": 68
  },
  {
   "buffer": 0,
   "byteOffset": 28592,
   "byteLength": 272
  },
  {
   "buffer": 0,
   "byteOffset": 28864,
   "byteLength": 68
  },
  {
   "buffer": 0,
   "byteOffset": 28932,
   "byteLength": 272
  },
  {
   "buffer": 0,
   "byteOffset": 29204,
   "byteLength": 68
  },
  {
   "buffer": 0,
   "byteOffset": 29272,
   "byteLength": 272
  },
  {
   "buffer": 0,
   "byteOffset": 29544,
   "byteLength": 68
  },
  {
   "buffer": 0,
   "byteOffset": 29612,
   "byteLength": 272
  },
  {
   "buffer": 0,
   "byteOffset": 29884,
   "byteLength": 68
  },
  {
   "buffer": 0,
   "byteOffset": 29952,
   "byteLength": 272
  },
  {
   "buffer": 0,
   "byteOffset": 30224,
   "byteLength": 68
  },
  {
   "buffer": 0,
   "byteOffset": 30292,
   "byteLength": 272
  },
  {
   "buffer": 0,
   "byteOffset": 30564,
   "byteLength": 68
  },
  {
   "buffer": 0,
   "byteOffset": 30632,
   "byteLength": 272
  },
  {
   "buffer": 0,
   "byteOffset": 30904,
   "byteLength": 68
  },
  {
   "buffer": 0,
   "byteOffset": 30972,
   "byteLength": 204
  },
  {
   "buffer": 0,
   "byteOffset": 31176,
   "byteLength": 68
  },
  {
   "buffer": 0,
   "byteOffset": 31244,
   "byteLength": 272
  },
  {
   "buffer": 0,
   "byteOffset": 31516,
   "byteLength": 68
  },
  {
   "buffer": 0,
   "byteOffset": 31584,
   "byteLength": 272
  },
  {
   "buffer": 0,
   "byteOffset": 31856,
   "byteLength": 68
  },
  {
   "buffer": 0,
   "byteOffset": 31924,
   "byteLength": 272
  },
  {
   "buffer": 0,
   "byteOffset": 32196,
   "byteLength": 68
  },
  {
   "buffer": 0,
   "byteOffset": 32264,
   "byteLength": 272
  },
  {
   "buffer": 0,
   "byteOffset": 32536,
   "byteLength": 68
  },
  {
   "buffer": 0,
   "byteOffset": 32604,
   "byteLength": 272
  },
  {
   "buffer": 0,
   "byteOffset": 32876,
   "byteLength": 68
  },
  {
   "buffer": 0,
   "byteOffset": 32944,
   "byteLength": 272
  },
  {
   "buffer": 0,
   "byteOffset": 33216,
   "byteLength": 68
  },
  {
   "buffer": 0,
   "byteOffset": 33284,
   "byteLength": 272
  },
  {
   "buffer": 0,
   "byteOffset": 33556,
   "byteLength": 68
  },
  {
   "buffer": 0,
   "byteOffset": 33624,
   "byteLength": 272
  },
  {
   "buffer": 0,
   "byteOffset": 33896,
   "byteLength": 68
  },
  {
   "buffer": 0,
   "byteOffset": 33964,
   "byteLength": 272
  },
  {
   "buffer": 0,
   "byteOffset": 34236,
   "byteLength": 68
  },
  {
   "buffer": 0,
   "byteOffset": 34304,
   "byteLength": 272
  },
  {
   "buffer": 0,
   "byteOffset": 34576,
   "byteLength": 68
  },
  {
   "buffer": 0,
   "byteOffset": 34644,
   "byteLength": 272
  },
  {
   "buffer": 0,
   "byteOffset": 34916,
   "byteLength": 68
  },
  {
   "buffer": 0,
   "byteOffset": 34984,
   "byteLength": 272
  },
  {
   "buffer": 0,
   "byteOffset": 35256,
   "byteLength": 68
  },
  {
   "buffer": 0,
   "byteOffset": 35324,
   "byteLength": 272
  },
  {
   "buffer": 0,
   "byteOffset": 35596,
   "byteLength": 68
  },
  {
   "buffer": 0,
   "byteOffset": 35664,
   "byteLength": 272
  },
  {
   "buffer": 0,
   "byteOffset": 35936,
   "byteLength": 68
  },
  {
   "buffer": 0,
   "byteOffset": 36004,
   "byteLength": 204
  },
  {
   "buffer": 0,
   "byteOffset": 36208,
   "byteLength": 84
  },
  {
   "buffer": 0,
   "byteOffset": 36292,
   "byteLength": 336
  },
  {
   "buffer": 0,
   "byteOffset": 36628,
   "byteLength": 84
  },
  {
   "buffer": 0,
   "byteOffset": 36712,
   "byteLength": 336
  },
  {
   "buffer": 0,
   "byteOffset": 37048,
   "byteLength": 84
  },
  {
   "buffer": 0,
   "byteOffset": 37132,
   "byteLength": 336
  },
  {
   "buffer": 0,
   "byteOffset": 37468,
   "byteLength": 84
  },
  {
   "buffer": 0,
   "byteOffset": 37552,
   "byteLength": 336
  },
  {
   "buffer": 0,
   "byteOffset": 37888,
   "byteLength": 84
  },
  {
   "buffer": 0,
   "byteOffset": 37972,
   "byteLength": 336
  },
  {
   "buffer": 0,
   "byteOffset": 38308,
   "byteLength": 84
  },
  {
   "buffer": 0,
   "byteOffset": 38392,
   "byteLength": 336
  },
  {
   "buffer": 0,
   "byteOffset": 38728,
   "byteLength": 84
  },
  {
   "buffer": 0,
   "byteOffset": 38812,
   "byteLength": 336
  },
  {
   "buffer": 0,
   "byteOffset": 39148,
   "byteLength": 84
  },
  {
   "buffer": 0,
   "byteOffset": 39232,
   "byteLength": 336
  },
  {
   "buffer": 0,
   "byteOffset": 39568,
   "byteLength": 84
  },
  {
   "buffer": 0,
   "byteOffset": 39652,
   "byteLength": 336
  },
  {
   "buffer": 0,
   "byteOffset": 39988,
   "byteLength": 84
  },
  {
   "buffer": 0,
   "byteOffset": 40072,
   "byteLength": 336
  },
  {
   "buffer": 0,
   "byteOffset": 40408,
   "byteLength": 84
  },
  {
   "buffer": 0,
   "byteOffset": 40492,
   "byteLength": 336
  },
  {
   "buffer": 0,
   "byteOffset": 40828,
   "byteLength": 84
  },
  {
   "buffer": 0,
   "byteOffset": 40912,
   "byteLength": 336
  },
  {
   "buffer": 0,
   "byteOffset": 41248,
   "byteLength": 84
  },
  {
   "buffer": 0,
   "byteOffset": 41332,
   "byteLength": 336
  },
  {
   "buffer": 0,
   "byteOffset": 41668,
   "byteLength": 84
  },
  {
   "buffer": 0,
   "byteOffset": 41752,
   "byteLength": 336
  },
  {
   "buffer": 0,
   "byteOffset": 42088,
   "byteLength": 84
  },
  {
   "buffer": 0,
   "byteOffset": 42172,
   "byteLength": 252
  }
 ],
 "accessors": [
  {
   "bufferView": 0,
   "componentType": 5126,
   "count": 408,
   "type": "VEC3",
   "min": [
    -0.1375,
    0.0,
    -0.5019131545810854
   ],
   "max": [
    0.1375,
    0.621083455966576,
    0.3750086773332004
   ]
  },
  {
   "bufferView": 1,
   "componentType": 5126,
   "count": 408,
   "type": "VEC3"
  },
  {
   "bufferView": 2,
   "componentType": 5126,
   "count": 408,
   "type": "VEC2"
  },
  {
   "bufferView": 3,
   "componentType": 5123,
   "count": 408,
   "type": "VEC4"
  },
  {
   "bufferView": 4,
   "componentType": 5126,
   "count": 408,
   "type": "VEC4"
  },
  {
   "bufferView": 5,
   "componentType": 5125,
   "count": 600,
   "type": "SCALAR"
  },
  {
   "bufferView": 6,
   "componentType": 5126,
   "count": 14,
   "type": "MAT4"
  },
  {
   "bufferView": 7,
   "componentType": 5126,
   "count": 17,
   "type": "SCALAR",
   "min": [
    0.0
   ],
   "max": [
    4.0
   ]
  },
  {
   "bufferView": 8,
   "componentType": 5126,
   "count": 17,
   "type": "VEC4"
  },
  {
   "bufferView": 9,
   "componentType": 5126,
   "count": 17,
   "type": "SCALAR",
   "min": [
    0.0
   ],
   "max": [
    4.0
   ]
  },
  {
   "bufferView": 10,
   "componentType": 5126,
   "count": 17,
   "type": "VEC4"
  },
  {
   "bufferView": 11,
   "componentType": 5126,
   "count": 17,
   "type": "SCALAR",
   "min": [
    0.0
   ],
   "max": [
    4.0
   ]
  },
  {
   "bufferView": 12,
   "componentType": 5126,
   "count": 17,
   "type": "VEC4"
  },
  {
   "bufferView": 13,
   "componentType": 5126,
   "count": 17,
   "type": "SCALAR",
   "min": [
    0.0
   ],
   "max": [
    4.0
   ]
  },
  {
   "bufferView": 14,
   "componentType": 5126,
   "count": 17,
   "type": "VEC4"
  },
  {
   "bufferView": 15,
   "componentType": 5126,
   "count": 17,
   "type": "SCALAR",
   "min": [
    0.0
   ],
   "max": [
    4.0
   ]
  },
  {
   "bufferView": 16,
   "componentType": 5126,
   "count": 17,
   "type": "VEC4"
  },
  {
   "bufferView": 17,
   "componentType": 5126,
   "count": 17,
   "type": "SCALAR",
   "min": [
    0.0
   ],
   "max": [
    4.0
   ]
  },
  {
   "bufferView": 18,
   "componentType": 5126,
   "count": 17,
   "type": "VEC4"
  },
  {
   "bufferView": 19,
   "componentType": 5126,
   "count": 17,
   "type": "SCALAR",
   "min": [
    0.0
   ],
   "max": [
    4.0
   ]
  },
  {
   "bufferView": 20,
   "componentType": 5126,
   "count": 17,
   "type": "VEC4"
  },
  {
   "bufferView": 21,
   "componentType": 5126,
   "count": 17,
   "type": "SCALAR",
   "min": [
    0.0
   ],
   "max": [
    4.0
   ]
  },
  {
   "bufferView": 22,
   "componentType": 5126,
   "count": 17,
   "type": "VEC4"
  },
  {
   "bufferView": 23,
   "componentType": 5126,
   "count": 17,
   "type": "SCALAR",
   "min": [
    0.0
   ],
   "max": [
    4.0
   ]
  },
  {
   "bufferView": 24,
   "componentType": 5126,
   "count": 17,
   "type": "VEC4"
  },
  {
   "bufferView": 25,
   "componentType": 5126,
   "count": 17,
   "type": "SCALAR",
   "min": [
    0.0
   ],
   "max": [
    4.0
   ]
  },
  {
   "bufferView": 26,
   "componentType": 5126,
   "count": 17,
   "type": "VEC4"
  },
  {
   "bufferView": 27,
   "componentType": 5126,
   "count": 17,
   "type": "SCALAR",
   "min": [
    0.0
   ],
   "max": [
    4.0
   ]
  },
  {
   "bufferView": 28,
   "componentType": 5126,
   "count": 17,
   "type": "VEC4"
  },
  {
   "bufferView": 29,
   "componentType": 5126,
   "count": 17,
   "type": "SCALAR",
   "min": [
    0.0
   ],
   "max": [
    4.0
   ]
  },
  {
   "bufferView": 30,
   "componentType": 5126,
   "count": 17,
   "type": "VEC4"
  },
  {
   "bufferView": 31,
   "componentType": 5126,
   "count": 17,
   "type": "SCALAR",
   "min": [
    0.0
   ],
   "max": [
    4.0
   ]
  },
  {
   "bufferView": 32,
   "componentType": 5126,
   "count": 17,
   "type": "VEC4"
  },
  {
   "bufferView": 33,
   "componentType": 5126,
   "count": 17,
   "type": "SCALAR",
   "min": [
    0.0
   ],
   "max": [
    4.0
   ]
  },
  {
   "bufferView": 34,
   "componentType": 5126,
   "count": 17,
   "type": "VEC4"
  },
  {
   "bufferView": 35,
   "componentType": 5126,
   "count": 17,
   "type": "SCALAR",
   "min": [
    0.0
   ],
   "max": [
    4.0
   ]
  },
  {
   "bufferView": 36,
   "componentType": 5126,
   "count": 17,
   "type": "VEC3"
  },
  {
   "bufferView": 37,
   "componentType": 5126,
   "count": 17,
   "type": "SCALAR",
   "min": [
    0.0
   ],
   "max": [
    0.6084
   ]
  },
  {
   "bufferView": 38,
   "componentType": 5126,
   "count": 17,
   "type": "VEC4"
  },
  {
   "bufferView": 39,
   "componentType": 5126,
   "count": 17,
   "type": "SCALAR",
   "min": [
    0.0
   ],
   "max": [
    0.6084
   ]
  },
  {
   "bufferView": 40,
   "componentType": 5126,
   "count": 17,
   "type": "VEC4"
  },
  {
   "bufferView": 41,
   "componentType": 5126,
   "count": 17,
   "type": "SCALAR",
   "min": [
    0.0
   ],
   "max": [
    0.6084
   ]
  },
  {
   "bufferView": 42,
   "componentType": 5126,
   "count": 17,
   "type": "VEC4"
  },
  {
   "bufferView": 43,
   "componentType": 5126,
   "count": 17,
   "type": "SCALAR",
   "min": [
    0.0
   ],
   "max": [
    0.6084
   ]
  },
  {
   "bufferView": 44,
   "componentType": 5126,
   "count": 17,
   "type": "VEC4"
  },
  {
   "bufferView": 45,
   "componentType": 5126,
   "count": 17,
   "type": "SCALAR",
   "min": [
    0.0
   ],
   "max": [
    0.6084
   ]
  },
  {
   "bufferView": 46,
   "componentType": 5126,
   "count": 17,
   "type": "VEC4"
  },
  {
   "bufferView": 47,
   "componentType": 5126,
   "count": 17,
   "type": "SCALAR",
   "min": [
    0.0
   ],
   "max": [
    0.6084
   ]
  },
  {
   "bufferView": 48,
   "componentType": 5126,
   "count": 17,
   "type": "VEC4"
  },
  {
   "bufferView": 49,
   "componentType": 5126,
   "count": 17,
   "type": "SCALAR",
   "min": [
    0.0
   ],
   "max": [
    0.6084
   ]
  },
  {
   "bufferView": 50,
   "componentType": 5126,
   "count": 17,
   "type": "VEC4"
  },
  {
   "bufferView": 51,
   "componentType": 5126,
   "count": 17,
   "type": "SCALAR",
   "min": [
    0.0
   ],
   "max": [
    0.6084
   ]
  },
  {
   "bufferView": 52,
   "componentType": 5126,
   "count": 17,
   "type": "VEC4"
  },
  {
   "bufferView": 53,
   "componentType": 5126,
   "count": 17,
   "type": "SCALAR",
   "min": [
    0.0
   ],
   "max": [
    0.6084
   ]
  },
  {
   "bufferView": 54,
   "componentType": 5126,
   "count": 17,
   "type": "VEC4"
  },
  {
   "bufferView": 55,
   "componentType": 5126,
   "count": 17,
   "type": "SCALAR",
   "min": [
    0.0
   ],
   "max": [
    0.6084
   ]
  },
  {
   "bufferView": 56,
   "componentType": 5126,
   "count": 17,
   "type": "VEC4"
  },
  {
   "bufferView": 57,
   "componentType": 5126,
   "count": 17,
   "type": "SCALAR",
   "min": [
    0.0
   ],
   "max": [
    0.6084
   ]
  },
  {
   "bufferView": 58,
   "componentType": 5126,
   "count": 17,
   "type": "VEC4"
  },
  {
   "bufferView": 59,
   "componentType": 5126,
   "count": 17,
   "type": "SCALAR",
   "min": [
    0.0
   ],
   "max": [
    0.6084
   ]
  },
  {
   "bufferView": 60,
   "componentType": 5126,
   "count": 17,
   "type": "VEC4"
  },
  {
   "bufferView": 61,
   "componentType": 5126,
   "count": 17,
   "type": "SCALAR",
   "min": [
    0.0
   ],
   "max": [
    0.6084
   ]
  },
  {
   "bufferView": 62,
   "componentType": 5126,
   "count": 17,
   "type": "VEC4"
  },
  {
   "bufferView": 63,
   "componentType": 5126,
   "count": 17,
   "type": "SCALAR",
   "min": [
    0.0
   ],
   "max": [
    0.6084
   ]
  },
  {
   "bufferView": 64,
   "componentType": 5126,
   "count": 17,
   "type": "VEC4"
  },
  {
   "bufferView": 65,
   "componentType": 5126,
   "count": 17,
   "type": "SCALAR",
   "min": [
    0.0
   ],
   "max": [
    0.6084
   ]
  },
  {
   "bufferView": 66,
   "componentType": 5126,
   "count": 17,
   "type": "VEC3"
  },
  {
   "bufferView": 67,
   "componentType": 5126,
   "count": 21,
   "type": "SCALAR",
   "min": [
    0.0
   ],
   "max": [
    1.8
   ]
  },
  {
   "bufferView": 68,
   "componentType": 5126,
   "count": 21,
   "type": "VEC4"
  },
  {
   "bufferView": 69,
   "componentType": 5126,
   "count": 21,
   "type": "SCALAR",
   "min": [
    0.0
   ],
   "max": [
    1.8
   ]
  },
  {
   "bufferView": 70,
   "componentType": 5126,
   "count": 21,
   "type": "VEC4"
  },
  {
   "bufferView": 71,
   "componentType": 5126,
   "count": 21,
   "type": "SCALAR",
   "min": [
    0.0
   ],
   "max": [
    1.8
   ]
  },
  {
   "bufferView": 72,
   "componentType": 5126,
   "count": 21,
   "type": "VEC4"
  },
  {
   "bufferView": 73,
   "componentType": 5126,
   "count": 21,
   "type": "SCALAR",
   "min": [
    0.0
   ],
   "max": [
    1.8
   ]
  },
  {
   "bufferView": 74,
   "componentType": 5126,
   "count": 21,
   "type": "VEC4"
  },
  {
   "bufferView": 75,
   "componentType": 5126,
   "count": 21,
   "type": "SCALAR",
   "min": [
    0.0
   ],
   "max": [
    1.8
   ]
  },
  {
   "bufferView": 76,
   "componentType": 5126,
   "count": 21,
   "type": "VEC4"
  },
  {
   "bufferView": 77,
   "componentType": 5126,
   "count": 21,
   "type": "SCALAR",
   "min": [
    0.0
   ],
   "max": [
    1.8
   ]
  },
  {
   "bufferView": 78,
   "componentType": 5126,
   "count": 21,
   "type": "VEC4"
  },
  {
   "bufferView": 79,
   "componentType": 5126,
   "count": 21,
   "type": "SCALAR",
   "min": [
    0.0
   ],
   "max": [
    1.8
   ]
  },
  {
   "bufferView": 80,
   "componentType": 5126,
   "count": 21,
   "type": "VEC4"
  },
  {
   "bufferView": 81,
   "componentType": 5126,
   "count": 21,
   "type": "SCALAR",
   "min": [
    0.0
   ],
   "max": [
    1.8
   ]
  },
  {
   "bufferView": 82,
   "componentType": 5126,
   "count": 21,
   "type": "VEC4"
  },
  {
   "bufferView": 83,
   "componentType": 5126,
   "count": 21,
   "type": "SCALAR",
   "min": [
    0.0
   ],
   "max": [
    1.8
   ]
  },
  {
   "bufferView": 84,
   "componentType": 5126,
   "count": 21,
   "type": "VEC4"
  },
  {
   "bufferView": 85,
   "componentType": 5126,
   "count": 21,
   "type": "SCALAR",
   "min": [
    0.0
   ],
   "max": [
    1.8
   ]
  },
  {
   "bufferView": 86,
   "componentType": 5126,
   "count": 21,
   "type": "VEC4"
  },
  {
   "bufferView": 87,
   "componentType": 5126,
   "count": 21,
   "type": "SCALAR",
   "min": [
    0.0
   ],
   "max": [
    1.8
   ]
  },
  {
   "bufferView": 88,
   "componentType": 5126,
   "count": 21,
   "type": "VEC4"
  },
  {
   "bufferView": 89,
   "componentType": 5126,
   "count": 21,
   "type": "SCALAR",
   "min": [
    0.0
   ],
   "max": [
    1.8
   ]
  },
  {
   "bufferView": 90,
   "componentType": 5126,
   "count": 21,
   "type": "VEC4"
  },
  {
   "bufferView": 91,
   "componentType": 5126,
   "count": 21,
   "type": "SCALAR",
   "min": [
    0.0
   ],
   "max": [
    1.8
   ]
  },
  {
   "bufferView": 92,
   "componentType": 5126,
   "count": 21,
   "type": "VEC4"
  },
  {
   "bufferView": 93,
   "componentType": 5126,
   "count": 21,
   "type": "SCALAR",
   "min": [
    0.0
   ],
   "max": [
    1.8
   ]
  },
  {
   "bufferView": 94,
   "componentType": 5126,
   "count": 21,
   "type": "VEC4"
  },
  {
   "bufferView": 95,
   "componentType": 5126,
   "count": 21,
   "type": "SCALAR",
   "min": [
    0.0
   ],
   "max": [
    1.8
   ]
  },
  {
   "bufferView": 96,
   "componentType": 5126,
   "count": 21,
   "type": "VEC3"
  }
 ],
 "buffers": [
  {
   "byteLength": 42424,
   "uri": "data:application/octet-stream;base64,"
  }
 ],
 "textures": [
  {
   "sampler": 0,
   "source": 0
  }
 ],
 "samplers": [
  {
   "magFilter": 9728,
   "minFilter": 9984,
   "wrapS": 33071,
   "wrapT": 33071
  }
 ],
 "images": [
  {
   "uri": "../../textures/animals/baby_deer_atlas_new.png",
   "mimeType": "image/png"
  }
 ],
 "animations": [
  {
   "name": "idle",
   "samplers": [
    {
     "input": 7,
     "output": 8,
     "interpolation": "LINEAR"
    },
    {
     "input": 9,
     "output": 10,
     "interpolation": "LINEAR"
    },
    {
     "input": 11,
     "output": 12,
     "interpolation": "LINEAR"
    },
    {
     "input": 13,
     "output": 14,
     "interpolation": "LINEAR"
    },
    {
     "input": 15,
     "output": 16,
     "interpolation": "LINEAR"
    },
    {
     "input": 17,
     "output": 18,
     "interpolation": "LINEAR"
    },
    {
     "input": 19,
     "output": 20,
     "interpolation": "LINEAR"
    },
    {
     "input": 21,
     "output": 22,
     "interpolation": "LINEAR"
    },
    {
     "input": 23,
     "output": 24,
     "interpolation": "LINEAR"
    },
    {
     "input": 25,
     "output": 26,
     "interpolation": "LINEAR"
    },
    {
     "input": 27,
     "output": 28,
     "interpolation": "LINEAR"
    },
    {
     "input": 29,
     "output": 30,
     "interpolation": "LINEAR"
    },
    {
     "input": 31,
     "output": 32,
     "interpolation": "LINEAR"
    },
    {
     "input": 33,
     "output": 34,
     "interpolation": "LINEAR"
    },
    {
     "input": 35,
     "output": 36,
     "interpolation": "LINEAR"
    }
   ],
   "channels": [
    {
     "sampler": 0,
     "target": {
      "node": 3,
      "path": "rotation"
     }
    },
    {
     "sampler": 1,
     "target": {
      "node": 5,
      "path": "rotation"
     }
    },
    {
     "sampler": 2,
     "target": {
      "node": 10,
      "path": "rotation"
     }
    },
    {
     "sampler": 3,
     "target": {
      "node": 9,
      "path": "rotation"
     }
    },
    {
     "sampler": 4,
     "target": {
      "node": 14,
      "path": "rotation"
     }
    },
    {
     "sampler": 5,
     "target": {
      "node": 13,
      "path": "rotation"
     }
    },
    {
     "sampler": 6,
     "target": {
      "node": 8,
      "path": "rotation"
     }
    },
    {
     "sampler": 7,
     "target": {
      "node": 7,
      "path": "rotation"
     }
    },
    {
     "sampler": 8,
     "target": {
      "node": 12,
      "path": "rotation"
     }
    },
    {
     "sampler": 9,
     "target": {
      "node": 11,
      "path": "rotation"
     }
    },
    {
     "sampler": 10,
     "target": {
      "node": 4,
      "path": "rotation"
     }
    },
    {
     "sampler": 11,
     "target": {
      "node": 1,
      "path": "rotation"
     }
    },
    {
     "sampler": 12,
     "target": {
      "node": 2,
      "path": "rotation"
     }
    },
    {
     "sampler": 13,
     "target": {
      "node": 6,
      "path": "rotation"
     }
    },
    {
     "sampler": 14,
     "target": {
      "node": 1,
      "path": "translation"
     }
    }
   ]
  },
  {
   "name": "walk",
   "samplers": [
    {
     "input": 37,
     "output": 38,
     "interpolation": "LINEAR"
    },
    {
     "input": 39,
     "output": 40,
     "interpolation": "LINEAR"
    },
    {
     "input": 41,
     "output": 42,
     "interpolation": "LINEAR"
    },
    {
     "input": 43,
     "output": 44,
     "interpolation": "LINEAR"
    },
    {
     "input": 45,
     "output": 46,
     "interpolation": "LINEAR"
    },
    {
     "input": 47,
     "output": 48,
     "interpolation": "LINEAR"
    },
    {
     "input": 49,
     "output": 50,
     "interpolation": "LINEAR"
    },
    {
     "input": 51,
     "output": 52,
     "interpolation": "LINEAR"
    },
    {
     "input": 53,
     "output": 54,
     "interpolation": "LINEAR"
    },
    {
     "input": 55,
     "output": 56,
     "interpolation": "LINEAR"
    },
    {
     "input": 57,
     "output": 58,
     "interpolation": "LINEAR"
    },
    {
     "input": 59,
     "output": 60,
     "interpolation": "LINEAR"
    },
    {
     "input": 61,
     "output": 62,
     "interpolation": "LINEAR"
    },
    {
     "input": 63,
     "output": 64,
     "interpolation": "LINEAR"
    },
    {
     "input": 65,
     "output": 66,
     "interpolation": "LINEAR"
    }
   ],
   "channels": [
    {
     "sampler": 0,
     "target": {
      "node": 3,
      "path": "rotation"
     }
    },
    {
     "sampler": 1,
     "target": {
      "node": 5,
      "path": "rotation"
     }
    },
    {
     "sampler": 2,
     "target": {
      "node": 10,
      "path": "rotation"
     }
    },
    {
     "sampler": 3,
     "target": {
      "node": 9,
      "path": "rotation"
     }
    },
    {
     "sampler": 4,
     "target": {
      "node": 14,
      "path": "rotation"
     }
    },
    {
     "sampler": 5,
     "target": {
      "node": 13,
      "path": "rotation"
     }
    },
    {
     "sampler": 6,
     "target": {
      "node": 8,
      "path": "rotation"
     }
    },
    {
     "sampler": 7,
     "target": {
      "node": 7,
      "path": "rotation"
     }
    },
    {
     "sampler": 8,
     "target": {
      "node": 12,
      "path": "rotation"
     }
    },
    {
     "sampler": 9,
     "target": {
      "node": 11,
      "path": "rotation"
     }
    },
    {
     "sampler": 10,
     "target": {
      "node": 4,
      "path": "rotation"
     }
    },
    {
     "sampler": 11,
     "target": {
      "node": 1,
      "path": "rotation"
     }
    },
    {
     "sampler": 12,
     "target": {
      "node": 2,
      "path": "rotation"
     }
    },
    {
     "sampler": 13,
     "target": {
      "node": 6,
      "path": "rotation"
     }
    },
    {
     "sampler": 14,
     "target": {
      "node": 1,
      "path": "translation"
     }
    }
   ]
  },
  {
   "name": "death",
   "samplers": [
    {
     "input": 67,
     "output": 68,
     "interpolation": "LINEAR"
    },
    {
     "input": 69,
     "output": 70,
     "interpolation": "LINEAR"
    },
    {
     "input": 71,
     "output": 72,
     "interpolation": "LINEAR"
    },
    {
     "input": 73,
     "output": 74,
     "interpolation": "LINEAR"
    },
    {
     "input": 75,
     "output": 76,
     "interpolation": "LINEAR"
    },
    {
     "input": 77,
     "output": 78,
     "interpolation": "LINEAR"
    },
    {
     "input": 79,
     "output": 80,
     "interpolation": "LINEAR"
    },
    {
     "input": 81,
     "output": 82,
     "interpolation": "LINEAR"
    },
    {
     "input": 83,
     "output": 84,
     "interpolation": "LINEAR"
    },
    {
     "input": 85,
     "output": 86,
     "interpolation": "LINEAR"
    },
    {
     "input": 87,
     "output": 88,
     "interpolation": "LINEAR"
    },
    {
     "input": 89,
     "output": 90,
     "interpolation": "LINEAR"
    },
    {
     "input": 91,
     "output": 92,
     "interpolation": "LINEAR"
    },
    {
     "input": 93,
     "output": 94,
     "interpolation": "LINEAR"
    },
    {
     "input": 95,
     "output": 96,
     "interpolation": "LINEAR"
    }
   ],
   "channels": [
    {
     "sampler": 0,
     "target": {
      "node": 3,
      "path": "rotation"
     }
    },
    {
     "sampler": 1,
     "target": {
      "node": 5,
      "path": "rotation"
     }
    },
    {
     "sampler": 2,
     "target": {
      "node": 10,
      "path": "rotation"
     }
    },
    {
     "sampler": 3,
     "target": {
      "node": 9,
      "path": "rotation"
     }
    },
    {
     "sampler": 4,
     "target": {
      "node": 14,
      "path": "rotation"
     }
    },
    {
     "sampler": 5,
     "target": {
      "node": 13,
      "path": "rotation"
     }
    },
    {
     "sampler": 6,
     "target": {
      "node": 8,
      "path": "rotation"
     }
    },
    {
     "sampler": 7,
     "target": {
      "node": 7,
      "path": "rotation"
     }
    },
    {
     "sampler": 8,
     "target": {
      "node": 12,
      "path": "rotation"
     }
    },
    {
     "sampler": 9,
     "target": {
      "node": 11,
      "path": "rotation"
     }
    },
    {
     "sampler": 10,
     "target": {
      "node": 4,
      "path": "rotation"
     }
    },
    {
     "sampler": 11,
     "target": {
      "node": 1,
      "path": "rotation"
     }
    },
    {
     "sampler": 12,
     "target": {
      "node": 2,
      "path": "rotation"
     }
    },
    {
     "sampler": 13,
     "target": {
      "node": 6,
      "path": "rotation"
     }
    },
    {
     "sampler": 14,
     "target": {
      "node": 1,
      "path": "translation"
     }
    }
   ]
  }
 ]
}