{
 "asset": {
  "version": "2.0",
  "generator": "parnitha tools/gen_animals_new.py"
 },
 "scene": 0,
 "scenes": [
  {
   "name": "baby_boar_new",
   "nodes": [
    0,
    1
   ]
  }
 ],
 "nodes": [
  {
   "name": "baby_boar_new_mesh",
   "mesh": 0,
   "skin": 0
  },
  {
   "name": "root",
   "translation": [
    0.0,
    0.0,
    0.0
   ],
   "children": [
    2
   ]
  },
  {
   "name": "spine",
   "translation": [
    0.0,
    0.196768,
    0.264
   ],
   "children": [
    3,
    6,
    9,
    13
   ]
  },
  {
   "name": "chest",
   "translation": [
    0.0,
    0.02200000000000002,
    -0.484
   ],
   "children": [
    4,
    7,
    11
   ]
  },
  {
   "name": "neck",
   "translation": [
    0.0,
    0.013199999999999962,
    0.0
   ],
   "children": [
    5
   ]
  },
  {
   "name": "head",
   "translation": [
    0.0,
    0.0,
    -0.05068799999999998
   ]
  },
  {
   "name": "tail",
   "translation": [
    0.0,
    0.0,
    0.0
   ]
  },
  {
   "name": "leg_fl_upper",
   "translation": [
    0.0682,
    -0.048400000000000026,
    0.088
   ],
   "children": [
    8
   ]
  },
  {
   "name": "leg_fl_lower",
   "translation": [
    0.0,
    -0.081312,
    0.0
   ]
  },
  {
   "name": "leg_bl_upper",
   "translation": [
    0.0726,
    -0.030271999999999993,
    -0.088
   ],
   "children": [
    10
   ]
  },
  {
   "name": "leg_bl_lower",
   "translation": [
    0.0,
    -0.08131200000000001,
    0.0
   ]
  },
  {
   "name": "leg_fr_upper",
   "translation": [
    -0.0682,
    -0.048400000000000026,
    0.088
   ],
   "children": [
    12
   ]
  },
  {
   "name": "leg_fr_lower",
   "translation": [
    0.0,
    -0.081312,
    0.0
   ]
  },
  {
   "name": "leg_br_upper",
   "translation": [
    -0.0726,
    -0.030271999999999993,
    -0.088
   ],
   "children": [
    14
   ]
  },
  {
   "name": "leg_br_lower",
   "translation": [
    0.0,
    -0.08131200000000001,
    0.0
   ]
  }
 ],
 "meshes": [
  {
   "name": "baby_boar_new",
   "primitives": [
    {
     "attributes": {
      "POSITION": 0,
      "NORMAL": 1,
      "TEXCOORD_0": 2,
      "JOINTS_0": 3,
      "WEIGHTS_0": 4
     },
     "indices": 5,
     "material": 0,
     "mode": 4
    }
   ]
  }
 ],
 "skins": [
  {
   "name": "baby_boar_new_skin",
   "inverseBindMatrices": 6,
   "skeleton": 1,
   "joints": [
    1,
    2,
    3,
    4,
    5,
    6,
    7,
    8,
    9,
    10,
    11,
    12,
    13,
    14
   ]
  }
 ],
 "materials": [
  {
   "name": "baby_boar_new_mat",
   "pbrMetallicRoughness": {
    "metallicFactor": 0.0,
    "roughnessFactor": 1.0,
    "baseColorTexture": {
     "index": 0
    }
   },
   "doubleSided": false
  }
 ],
 "bufferViews": [
  {
   "buffer": 0,
   "byteOffset": 0,
   "byteLength": 4848,
   "target": 34962
  },
  {
   "buffer": 0,
   "byteOffset": 4848,
   "byteLength": 4848,
   "target": 34962
  },
  {
   "buffer": 0,
   "byteOffset": 9696,
   "byteLength": 3232,
   "target": 34962
  },
  {
   "buffer": 0,
   "byteOffset": 12928,
   "byteLength": 3232,
   "target": 34962
  },
  {
   "buffer": 0,
   "byteOffset": 16160,
   "byteLength": 6464,
   "target": 34962
  },
  {
   "buffer": 0,
   "byteOffset": 22624,
   "byteLength": 2400,
   "target": 34963
  },
  {
   "buffer": 0,
   "byteOffset": 25024,
   "byteLength": 896
  },
  {
   "buffer": 0,
   "byteOffset": 25920,
   "byteLength": 68
  },
  {
   "buffer": 0,
   "byteOffset": 25988,
   "byteLength": 272
  },
  {
   "buffer": 0,
   "byteOffset": 26260,
   "byteLength": 68
  },
  {
   "buffer": 0,
   "byteOffset": 26328,
   "byteLength": 272
  },
  {
   "buffer": 0,
   "byteOffset": 26600,
   "byteLength": 68
  },
  {
   "buffer": 0,
   "byteOffset": 26668,
   "byteLength": 272
  },
  {
   "buffer": 0,
   "byteOffset": 26940,
   "byteLength": 68
  },
  {
   "buffer": 0,
   "byteOffset": 27008,
   "byteLength": 272
  },
  {
   "buffer": 0,
   "byteOffset": 27280,
   "byteLength": 68
  },
  {
   "buffer": 0,
   "byteOffset": 27348,
   "byteLength": 272
  },
  {
   "buffer": 0,
   "byteOffset": 27620,
   "byteLength": 68
  },
  {
   "buffer": 0,
   "byteOffset": 27688,
   "byteLength": 272
  },
  {
   "buffer": 0,
   "byteOffset": 27960,
   "byteLength": 68
  },
  {
   "buffer": 0,
   "byteOffset": 28028,
   "byteLength": 272
  },
  {
   "buffer": 0,
   "byteOffset": 28300,
   "byteLength": 68
  },
  {
   "buffer": 0,
   "byteOffset": 28368,
   "byteLength": 272
  },
  {
   "buffer": 0,
   "byteOffset": 28640,
   "byteLength": 68
  },
  {
   "buffer": 0,
   "byteOffset": 28708,
   "byteLength": 272
  },
  {
   "buffer": 0,
   "byteOffset": 28980,
   "byteLength": 68
  },
  {
   "buffer": 0,
   "byteOffset": 29048,
   "byteLength": 272
  },
  {
   "buffer": 0,
   "byteOffset": 29320,
   "byteLength": 68
  },
  {
   "buffer": 0,
   "byteOffset": 29388,
   "byteLength": 272
  },
  {
   "buffer": 0,
   "byteOffset": 29660,
   "byteLength": 68
  },
  {
   "buffer": 0,
   "byteOffset": 29728,
   "byteLength": 272
  },
  {
   "buffer": 0,
   "byteOffset": 30000,
   "byteLength": 68
  },
  {
   "buffer": 0,
   "byteOffset": 30068,
   "byteLength": 272
  },
  {
   "buffer": 0,
   "byteOffset": 30340,
   "byteLength": 68
  },
  {
   "buffer": 0,
   "byteOffset": 30408,
   "byteLength": 272
  },
  {
   "buffer": 0,
   "byteOffset": 30680,
   "byteLength": 68
  },
  {
   "buffer": 0,
   "byteOffset": 30748,
   "byteLength": 204
  },
  {
   "buffer": 0,
   "byteOffset": 30952,
   "byteLength": 68
  },
  {
   "buffer": 0,
   "byteOffset": 31020,
   "byteLength": 272
  },
  {
   "buffer": 0,
   "byteOffset": 31292,
   "byteLength": 68
  },
  {
   "buffer": 0,
   "byteOffset": 31360,
   "byteLength": 272
  },
  {
   "buffer": 0,
   "byteOffset": 31632,
   "byteLength": 68
  },
  {
   "buffer": 0,
   "byteOffset": 31700,
   "byteLength": 272
  },
  {
   "buffer": 0,
   "byteOffset": 31972,
   "byteLength": 68
  },
  {
   "buffer": 0,
   "byteOffset": 32040,
   "byteLength": 272
  },
  {
   "buffer": 0,
   "byteOffset": 32312,
   "byteLength": 68
  },
  {
   "buffer": 0,
   "byteOffset": 32380,
   "byteLength": 272
  },
  {
   "buffer": 0,
   "byteOffset": 32652,
   "byteLength": 68
  },
  {
   "buffer": 0,
   "byteOffset": 32720,
   "byteLength": 272
  },
  {
   "buffer": 0,
   "byteOffset": 32992,
   "byteLength": 68
  },
  {
   "buffer": 0,
   "byteOffset": 33060,
   "byteLength": 272
  },
  {
   "buffer": 0,
   "byteOffset": 33332,
   "byteLength": 68
  },
  {
   "buffer": 0,
   "byteOffset": 33400,
   "byteLength": 272
  },
  {
   "buffer": 0,
   "byteOffset": 33672,
   "byteLength": 68
  },
  {
   "buffer": 0,
   "byteOffset": 33740,
   "byteLength": 272
  },
  {
   "buffer": 0,
   "byteOffset": 34012,
   "byteLength": 68
  },
  {
   "buffer": 0,
   "byteOffset": 34080,
   "byteLength": 272
  },
  {
   "buffer": 0,
   "byteOffset": 34352,
   "byteLength": 68
  },
  {
   "buffer": 0,
   "byteOffset": 34420,
   "byteLength": 272
  },
  {
   "buffer": 0,
   "byteOffset": 34692,
   "byteLength": 68
  },
  {
   "buffer": 0,
   "byteOffset": 34760,
   "byteLength": 272
  },
  {
   "buffer": 0,
   "byteOffset": 35032,
   "byteLength": 68
  },
  {
   "buffer": 0,
   "byteOffset": 35100,
   "byteLength": 272
  },
  {
   "buffer": 0,
   "byteOffset": 35372,
   "byteLength": 68
  },
  {
   "buffer": 0,
   "byteOffset": 35440,
   "byteLength": 272
  },
  {
   "buffer": 0,
   "byteOffset": 35712,
   "byteLength": 68
  },
  {
   "buffer": 0,
   "byteOffset": 35780,
   "byteLength": 204
  },
  {
   "buffer": 0,
   "byteOffset": 35984,
   "byteLength": 84
  },
  {
   "buffer": 0,
   "byteOffset": 36068,
   "byteLength": 336
  },
  {
   "buffer": 0,
   "byteOffset": 36404,
   "byteLength": 84
  },
  {
   "buffer": 0,
   "byteOffset": 36488,
   "byteLength": 336
  },
  {
   "buffer": 0,
   "byteOffset": 36824,
   "byteLength": 84
  },
  {
   "buffer": 0,
   "byteOffset": 36908,
   "byteLength": 336
  },
  {
   "buffer": 0,
   "byteOffset": 37244,
   "byteLength": 84
  },
  {
   "buffer": 0,
   "byteOffset": 37328,
   "byteLength": 336
  },
  {
   "buffer": 0,
   "byteOffset": 37664,
   "byteLength": 84
  },
  {
   "buffer": 0,
   "byteOffset": 37748,
   "byteLength": 336
  },
  {
   "buffer": 0,
   "byteOffset": 38084,
   "byteLength": 84
  },
  {
   "buffer": 0,
   "byteOffset": 38168,
   "byteLength": 336
  },
  {
   "buffer": 0,
   "byteOffset": 38504,
   "byteLength": 84
  },
  {
   "buffer": 0,
   "byteOffset": 38588,
   "byteLength": 336
  },
  {
   "buffer": 0,
   "byteOffset": 38924,
   "byteLength": 84
  },
  {
   "buffer": 0,
   "byteOffset": 39008,
   "byteLength": 336
  },
  {
   "buffer": 0,
   "byteOffset": 39344,
   "byteLength": 84
  },
  {
   "buffer": 0,
   "byteOffset": 39428,
   "byteLength": 336
  },
  {
   "buffer": 0,
   "byteOffset": 39764,
   "byteLength": 84
  },
  {
   "buffer": 0,
   "byteOffset": 39848,
   "byteLength": 336
  },
  {
   "buffer": 0,
   "byteOffset": 40184,
   "byteLength": 84
  },
  {
   "buffer": 0,
   "byteOffset": 40268,
   "byteLength": 336
  },
  {
   "buffer": 0,
   "byteOffset": 40604,
   "byteLength": 84
  },
  {
   "buffer": 0,
   "byteOffset": 40688,
   "byteLength": 336
  },
  {
   "buffer": 0,
   "byteOffset": 41024,
   "byteLength": 84
  },
  {
   "buffer": 0,
   "byteOffset": 41108,
   "byteLength": 336
  },
  {
   "buffer": 0,
   "byteOffset": 41444,
   "byteLength": 84
  },
  {
   "buffer": 0,
   "byteOffset": 41528,
   "byteLength": 336
  },
  {
   "buffer": 0,
   "byteOffset": 41864,
   "byteLength": 84
  },
  {
   "buffer": 0,
   "byteOffset": 41948,
   "byteLength": 252
  }
 ],
 "accessors": [
  {
   "bufferView": 0,
   "componentType": 5126,
   "count": 404,
   "type": "VEC3",
   "min": [
    -0.1144,
    0.0,
    -0.42006555068765294
   ],
   "max": [
    0.1144,
    0.35076799999999997,
    0.29705905812099753
   ]
  },
  {
   "bufferView": 1,
   "componentType": 5126,
   "count": 404,
   "type": "VEC3"
  },
  {
   "bufferView": 2,
   "componentType": 5126,
   "count": 404,
   "type": "VEC2"
  },
  {
   "bufferView": 3,
   "componentType": 5123,
   "count": 404,
   "type": "VEC4"
  },
  {
   "bufferView": 4,
   "componentType": 5126,
   "count": 404,
   "type": "VEC4"
  },
  {
   "bufferView": 5,
   "componentType": 5125,
   "count": 600,
   "type": "SCALAR"
  },
  {
   "bufferView": 6,
   "componentType": 5126,
   "count": 14,
   "type": "MAT4"
  },
  {
   "bufferView": 7,
   "componentType": 5126,
   "count": 17,
   "type": "SCALAR",
   "min": [
    0.0
   ],
   "max": [
    3.2
   ]
  },
  {
   "bufferView": 8,
   "componentType": 5126,
   "count": 17,
   "type": "VEC4"
  },
  {
   "bufferView": 9,
   "componentType": 5126,
   "count": 17,
   "type": "SCALAR",
   "min": [
    0.0
   ],
   "max": [
    3.2
   ]
  },
  {
   "bufferView": 10,
   "componentType": 5126,
   "count": 17,
   "type": "VEC4"
  },
  {
   "bufferView": 11,
   "componentType": 5126,
   "count": 17,
   "type": "SCALAR",
   "min": [
    0.0
   ],
   "max": [
    3.2
   ]
  },
  {
   "bufferView": 12,
   "componentType": 5126,
   "count": 17,
   "type": "VEC4"
  },
  {
   "bufferView": 13,
   "componentType": 5126,
   "count": 17,
   "type": "SCALAR",
   "min": [
    0.0
   ],
   "max": [
    3.2
   ]
  },
  {
   "bufferView": 14,
   "componentType": 5126,
   "count": 17,
   "type": "VEC4"
  },
  {
   "bufferView": 15,
   "componentType": 5126,
   "count": 17,
   "type": "SCALAR",
   "min": [
    0.0
   ],
   "max": [
    3.2
   ]
  },
  {
   "bufferView": 16,
   "componentType": 5126,
   "count": 17,
   "type": "VEC4"
  },
  {
   "bufferView": 17,
   "componentType": 5126,
   "count": 17,
   "type": "SCALAR",
   "min": [
    0.0
   ],
   "max": [
    3.2
   ]
  },
  {
   "bufferView": 18,
   "componentType": 5126,
   "count": 17,
   "type": "VEC4"
  },
  {
   "bufferView": 19,
   "componentType": 5126,
   "count": 17,
   "type": "SCALAR",
   "min": [
    0.0
   ],
   "max": [
    3.2
   ]
  },
  {
   "bufferView": 20,
   "componentType": 5126,
   "count": 17,
   "type": "VEC4"
  },
  {
   "bufferView": 21,
   "componentType": 5126,
   "count": 17,
   "type": "SCALAR",
   "min": [
    0.0
   ],
   "max": [
    3.2
   ]
  },
  {
   "bufferView": 22,
   "componentType": 5126,
   "count": 17,
   "type": "VEC4"
  },
  {
   "bufferView": 23,
   "componentType": 5126,
   "count": 17,
   "type": "SCALAR",
   "min": [
    0.0
   ],
   "max": [
    3.2
   ]
  },
  {
   "bufferView": 24,
   "componentType": 5126,
   "count": 17,
   "type": "VEC4"
  },
  {
   "bufferView": 25,
   "componentType": 5126,
   "count": 17,
   "type": "SCALAR",
   "min": [
    0.0
   ],
   "max": [
    3.2
   ]
  },
  {
   "bufferView": 26,
   "componentType": 5126,
   "count": 17,
   "type": "VEC4"
  },
  {
   "bufferView": 27,
   "componentType": 5126,
   "count": 17,
   "type": "SCALAR",
   "min": [
    0.0
   ],
   "max": [
    3.2
   ]
  },
  {
   "bufferView": 28,
   "componentType": 5126,
   "count": 17,
   "type": "VEC4"
  },
  {
   "bufferView": 29,
   "componentType": 5126,
   "count": 17,
   "type": "SCALAR",
   "min": [
    0.0
   ],
   "max": [
    3.2
   ]
  },
  {
   "bufferView": 30,
   "componentType": 5126,
   "count": 17,
   "type": "VEC4"
  },
  {
   "bufferView": 31,
   "componentType": 5126,
   "count": 17,
   "type": "SCALAR",
   "min": [
    0.0
   ],
   "max": [
    3.2
   ]
  },
  {
   "bufferView": 32,
   "componentType": 5126,
   "count": 17,
   "type": "VEC4"
  },
  {
   "bufferView": 33,
   "componentType": 5126,
   "count": 17,
   "type": "SCALAR",
   "min": [
    0.0
   ],
   "max": [
    3.2
   ]
  },
  {
   "bufferView": 34,
   "componentType": 5126,
   "count": 17,
   "type": "VEC4"
  },
  {
   "bufferView": 35,
   "componentType": 5126,
   "count": 17,
   "type": "SCALAR",
   "min": [
    0.0
   ],
   "max": [
    3.2
   ]
  },
  {
   "bufferView": 36,
   "componentType": 5126,
   "count": 17,
   "type": "VEC3"
  },
  {
   "bufferView": 37,
   "componentType": 5126,
   "count": 17,
   "type": "SCALAR",
   "min": [
    0.0
   ],
   "max": [
    0.4836
   ]
  },
  {
   "bufferView": 38,
   "componentType": 5126,
   "count": 17,
   "type": "VEC4"
  },
  {
   "bufferView": 39,
   "componentType": 5126,
   "count": 17,
   "type": "SCALAR",
   "min": [
    0.0
   ],
   "max": [
    0.4836
   ]
  },
  {
   "bufferView": 40,
   "componentType": 5126,
   "count": 17,
   "type": "VEC4"
  },
  {
   "bufferView": 41,
   "componentType": 5126,
   "count": 17,
   "type": "SCALAR",
   "min": [
    0.0
   ],
   "max": [
    0.4836
   ]
  },
  {
   "bufferView": 42,
   "componentType": 5126,
   "count": 17,
   "type": "VEC4"
  },
  {
   "bufferView": 43,
   "componentType": 5126,
   "count": 17,
   "type": "SCALAR",
   "min": [
    0.0
   ],
   "max": [
    0.4836
   ]
  },
  {
   "bufferView": 44,
   "componentType": 5126,
   "count": 17,
   "type": "VEC4"
  },
  {
   "bufferView": 45,
   "componentType": 5126,
   "count": 17,
   "type": "SCALAR",
   "min": [
    0.0
   ],
   "max": [
    0.4836
   ]
  },
  {
   "bufferView": 46,
   "componentType": 5126,
   "count": 17,
   "type": "VEC4"
  },
  {
   "bufferView": 47,
   "componentType": 5126,
   "count": 17,
   "type": "SCALAR",
   "min": [
    0.0
   ],
   "max": [
    0.4836
   ]
  },
  {
   "bufferView": 48,
   "componentType": 5126,
   "count": 17,
   "type": "VEC4"
  },
  {
   "bufferView": 49,
   "componentType": 5126,
   "count": 17,
   "type": "SCALAR",
   "min": [
    0.0
   ],
   "max": [
    0.4836
   ]
  },
  {
   "bufferView": 50,
   "componentType": 5126,
   "count": 17,
   "type": "VEC4"
  },
  {
   "bufferView": 51,
   "componentType": 5126,
   "count": 17,
   "type": "SCALAR",
   "min": [
    0.0
   ],
   "max": [
    0.4836
   ]
  },
  {
   "bufferView": 52,
   "componentType": 5126,
   "count": 17,
   "type": "VEC4"
  },
  {
   "bufferView": 53,
   "componentType": 5126,
   "count": 17,
   "type": "SCALAR",
   "min": [
    0.0
   ],
   "max": [
    0.4836
   ]
  },
  {
   "bufferView": 54,
   "componentType": 5126,
   "count": 17,
   "type": "VEC4"
  },
  {
   "bufferView": 55,
   "componentType": 5126,
   "count": 17,
   "type": "SCALAR",
   "min": [
    0.0
   ],
   "max": [
    0.4836
   ]
  },
  {
   "bufferView": 56,
   "componentType": 5126,
   "count": 17,
   "type": "VEC4"
  },
  {
   "bufferView": 57,
   "componentType": 5126,
   "count": 17,
   "type": "SCALAR",
   "min": [
    0.0
   ],
   "max": [
    0.4836
   ]
  },
  {
   "bufferView": 58,
   "componentType": 5126,
   "count": 17,
   "type": "VEC4"
  },
  {
   "bufferView": 59,
   "componentType": 5126,
   "count": 17,
   "type": "SCALAR",
   "min": [
    0.0
   ],
   "max": [
    0.4836
   ]
  },
  {
   "bufferView": 60,
   "componentType": 5126,
   "count": 17,
   "type": "VEC4"
  },
  {
   "bufferView": 61,
   "componentType": 5126,
   "count": 17,
   "type": "SCALAR",
   "min": [
    0.0
   ],
   "max": [
    0.4836
   ]
  },
  {
   "bufferView": 62,
   "componentType": 5126,
   "count": 17,
   "type": "VEC4"
  },
  {
   "bufferView": 63,
   "componentType": 5126,
   "count": 17,
   "type": "SCALAR",
   "min": [
    0.0
   ],
   "max": [
    0.4836
   ]
  },
  {
   "bufferView": 64,
   "componentType": 5126,
   "count": 17,
   "type": "VEC4"
  },
  {
   "bufferView": 65,
   "componentType": 5126,
   "count": 17,
   "type": "SCALAR",
   "min": [
    0.0
   ],
   "max": [
    0.4836
   ]
  },
  {
   "bufferView": 66,
   "componentType": 5126,
   "count": 17,
   "type": "VEC3"
  },
  {
   "bufferView": 67,
   "componentType": 5126,
   "count": 21,
   "type": "SCALAR",
   "min": [
    0.0
   ],
   "max": [
    1.5
   ]
  },
  {
   "bufferView": 68,
   "componentType": 5126,
   "count": 21,
   "type": "VEC4"
  },
  {
   "bufferView": 69,
   "componentType": 5126,
   "count": 21,
   "type": "SCALAR",
   "min": [
    0.0
   ],
   "max": [
    1.5
   ]
  },
  {
   "bufferView": 70,
   "componentType": 5126,
   "count": 21,
   "type": "VEC4"
  },
  {
   "bufferView": 71,
   "componentType": 5126,
   "count": 21,
   "type": "SCALAR",
   "min": [
    0.0
   ],
   "max": [
    1.5
   ]
  },
  {
   "bufferView": 72,
   "componentType": 5126,
   "count": 21,
   "type": "VEC4"
  },
  {
   "bufferView": 73,
   "componentType": 5126,
   "count": 21,
   "type": "SCALAR",
   "min": [
    0.0
   ],
   "max": [
    1.5
   ]
  },
  {
   "bufferView": 74,
   "componentType": 5126,
   "count": 21,
   "type": "VEC4"
  },
  {
   "bufferView": 75,
   "componentType": 5126,
   "count": 21,
   "type": "SCALAR",
   "min": [
    0.0
   ],
   "max": [
    1.5
   ]
  },
  {
   "bufferView": 76,
   "componentType": 5126,
   "count": 21,
   "type": "VEC4"
  },
  {
   "bufferView": 77,
   "componentType": 5126,
   "count": 21,
   "type": "SCALAR",
   "min": [
    0.0
   ],
   "max": [
    1.5
   ]
  },
  {
   "bufferView": 78,
   "componentType": 5126,
   "count": 21,
   "type": "VEC4"
  },
  {
   "bufferView": 79,
   "componentType": 5126,
   "count": 21,
   "type": "SCALAR",
   "min": [
    0.0
   ],
   "max": [
    1.5
   ]
  },
  {
   "bufferView": 80,
   "componentType": 5126,
   "count": 21,
   "type": "VEC4"
  },
  {
   "bufferView": 81,
   "componentType": 5126,
   "count": 21,
   "type": "SCALAR",
   "min": [
    0.0
   ],
   "max": [
    1.5
   ]
  },
  {
   "bufferView": 82,
   "componentType": 5126,
   "count": 21,
   "type": "VEC4"
  },
  {
   "bufferView": 83,
   "componentType": 5126,
   "count": 21,
   "type": "SCALAR",
   "min": [
    0.0
   ],
   "max": [
    1.5
   ]
  },
  {
   "bufferView": 84,
   "componentType": 5126,
   "count": 21,
   "type": "VEC4"
  },
  {
   "bufferView": 85,
   "componentType": 5126,
   "count": 21,
   "type": "SCALAR",
   "min": [
    0.0
   ],
   "max": [
    1.5
   ]
  },
  {
   "bufferView": 86,
   "componentType": 5126,
   "count": 21,
   "type": "VEC4"
  },
  {
   "bufferView": 87,
   "componentType": 5126,
   "count": 21,
   "type": "SCALAR",
   "min": [
    0.0
   ],
   "max": [
    1.5
   ]
  },
  {
   "bufferView": 88,
   "componentType": 5126,
   "count": 21,
   "type": "VEC4"
  },
  {
   "bufferView": 89,
   "componentType": 5126,
   "count": 21,
   "type": "SCALAR",
   "min": [
    0.0
   ],
   "max": [
    1.5
   ]
  },
  {
   "bufferView": 90,
   "componentType": 5126,
   "count": 21,
   "type": "VEC4"
  },
  {
   "bufferView": 91,
   "componentType": 5126,
   "count": 21,
   "type": "SCALAR",
   "min": [
    0.0
   ],
   "max": [
    1.5
   ]
  },
  {
   "bufferView": 92,
   "componentType": 5126,
   "count": 21,
   "type": "VEC4"
  },
  {
   "bufferView": 93,
   "componentType": 5126,
   "count": 21,
   "type": "SCALAR",
   "min": [
    0.0
   ],
   "max": [
    1.5
   ]
  },
  {
   "bufferView": 94,
   "componentType": 5126,
   "count": 21,
   "type": "VEC4"
  },
  {
   "bufferView": 95,
   "componentType": 5126,
   "count": 21,
   "type": "SCALAR",
   "min": [
    0.0
   ],
   "max": [
    1.5
   ]
  },
  {
   "bufferView": 96,
   "componentType": 5126,
   "count": 21,
   "type": "VEC3"
  }
 ],
 "buffers": [
  {
   "byteLength": 42200,
   "uri": "data:application/octet-stream;base64,"
  }
 ],
 "textures": [
  {
   "sampler": 0,
   "source": 0
  }
 ],
 "samplers": [
  {
   "magFilter": 9728,
   "minFilter": 9984,
   "wrapS": 33071,
   "wrapT": 33071
  }
 ],
 "images": [
  {
   "uri": "../../textures/animals/baby_boar_atlas_new.png",
   "mimeType": "image/png"
  }
 ],
 "animations": [
  {
   "name": "idle",
   "samplers": [
    {
     "input": 7,
     "output": 8,
     "interpolation": "LINEAR"
    },
    {
     "input": 9,
     "output": 10,
     "interpolation": "LINEAR"
    },
    {
     "input": 11,
     "output": 12,
     "interpolation": "LINEAR"
    },
    {
     "input": 13,
     "output": 14,
     "interpolation": "LINEAR"
    },
    {
     "input": 15,
     "output": 16,
     "interpolation": "LINEAR"
    },
    {
     "input": 17,
     "output": 18,
     "interpolation": "LINEAR"
    },
    {
     "input": 19,
     "output": 20,
     "interpolation": "LINEAR"
    },
    {
     "input": 21,
     "output": 22,
     "interpolation": "LINEAR"
    },
    {
     "input": 23,
     "output": 24,
     "interpolation": "LINEAR"
    },
    {
     "input": 25,
     "output": 26,
     "interpolation": "LINEAR"
    },
    {
     "input": 27,
     "output": 28,
     "interpolation": "LINEAR"
    },
    {
     "input": 29,
     "output": 30,
     "interpolation": "LINEAR"
    },
    {
     "input": 31,
     "output": 32,
     "interpolation": "LINEAR"
    },
    {
     "input": 33,
     "output": 34,
     "interpolation": "LINEAR"
    },
    {
     "input": 35,
     "output": 36,
     "interpolation": "LINEAR"
    }
   ],
   "channels": [
    {
     "sampler": 0,
     "target": {
      "node": 3,
      "path": "rotation"
     }
    },
    {
     "sampler": 1,
     "target": {
      "node": 5,
      "path": "rotation"
     }
    },
    {
     "sampler": 2,
     "target": {
      "node": 10,
      "path": "rotation"
     }
    },
    {
     "sampler": 3,
     "target": {
      "node": 9,
      "path": "rotation"
     }
    },
    {
     "sampler": 4,
     "target": {
      "node": 14,
      "path": "rotation"
     }
    },
    {
     "sampler": 5,
     "target": {
      "node": 13,
      "path": "rotation"
     }
    },
    {
     "sampler": 6,
     "target": {
      "node": 8,
      "path": "rotation"
     }
    },
    {
     "sampler": 7,
     "target": {
      "node": 7,
      "path": "rotation"
     }
    },
    {
     "sampler": 8,
     "target": {
      "node": 12,
      "path": "rotation"
     }
    },
    {
     "sampler": 9,
     "target": {
      "node": 11,
      "path": "rotation"
     }
    },
    {
     "sampler": 10,
     "target": {
      "node": 4,
      "path": "rotation"
     }
    },
    {
     "sampler": 11,
     "target": {
      "node": 1,
      "path": "rotation"
     }
    },
    {
     "sampler": 12,
     "target": {
      "node": 2,
      "path": "rotation"
     }
    },
    {
     "sampler": 13,
     "target": {
      "node": 6,
      "path": "rotation"
     }
    },
    {
     "sampler": 14,
     "target": {
      "node": 1,
      "path": "translation"
     }
    }
   ]
  },
  {
   "name": "walk",
   "samplers": [
    {
     "input": 37,
     "output": 38,
     "interpolation": "LINEAR"
    },
    {
     "input": 39,
     "output": 40,
     "interpolation": "LINEAR"
    },
    {
     "input": 41,
     "output": 42,
     "interpolation": "LINEAR"
    },
    {
     "input": 43,
     "output": 44,
     "interpolation": "LINEAR"
    },
    {
     "input": 45,
     "output": 46,
     "interpolation": "LINEAR"
    },
    {
     "input": 47,
     "output": 48,
     "interpolation": "LINEAR"
    },
    {
     "input": 49,
     "output": 50,
     "interpolation": "LINEAR"
    },
    {
     "input": 51,
     "output": 52,
     "interpolation": "LINEAR"
    },
    {
     "input": 53,
     "output": 54,
     "interpolation": "LINEAR"
    },
    {
     "input": 55,
     "output": 56,
     "interpolation": "LINEAR"
    },
    {
     "input": 57,
     "output": 58,
     "interpolation": "LINEAR"
    },
    {
     "input": 59,
     "output": 60,
     "interpolation": "LINEAR"
    },
    {
     "input": 61,
     "output": 62,
     "interpolation": "LINEAR"
    },
    {
     "input": 63,
     "output": 64,
     "interpolation": "LINEAR"
    },
    {
     "input": 65,
     "output": 66,
     "interpolation": "LINEAR"
    }
   ],
   "channels": [
    {
     "sampler": 0,
     "target": {
      "node": 3,
      "path": "rotation"
     }
    },
    {
     "sampler": 1,
     "target": {
      "node": 5,
      "path": "rotation"
     }
    },
    {
     "sampler": 2,
     "target": {
      "node": 10,
      "path": "rotation"
     }
    },
    {
     "sampler": 3,
     "target": {
      "node": 9,
      "path": "rotation"
     }
    },
    {
     "sampler": 4,
     "target": {
      "node": 14,
      "path": "rotation"
     }
    },
    {
     "sampler": 5,
     "target": {
      "node": 13,
      "path": "rotation"
     }
    },
    {
     "sampler": 6,
     "target": {
      "node": 8,
      "path": "rotation"
     }
    },
    {
     "sampler": 7,
     "target": {
      "node": 7,
      "path": "rotation"
     }
    },
    {
     "sampler": 8,
     "target": {
      "node": 12,
      "path": "rotation"
     }
    },
    {
     "sampler": 9,
     "target": {
      "node": 11,
      "path": "rotation"
     }
    },
    {
     "sampler": 10,
     "target": {
      "node": 4,
      "path": "rotation"
     }
    },
    {
     "sampler": 11,
     "target": {
      "node": 1,
      "path": "rotation"
     }
    },
    {
     "sampler": 12,
     "target": {
      "node": 2,
      "path": "rotation"
     }
    },
    {
     "sampler": 13,
     "target": {
      "node": 6,
      "path": "rotation"
     }
    },
    {
     "sampler": 14,
     "target": {
      "node": 1,
      "path": "translation"
     }
    }
   ]
  },
  {
   "name": "death",
   "samplers": [
    {
     "input": 67,
     "output": 68,
     "interpolation": "LINEAR"
    },
    {
     "input": 69,
     "output": 70,
     "interpolation": "LINEAR"
    },
    {
     "input": 71,
     "output": 72,
     "interpolation": "LINEAR"
    },
    {
     "input": 73,
     "output": 74,
     "interpolation": "LINEAR"
    },
    {
     "input": 75,
     "output": 76,
     "interpolation": "LINEAR"
    },
    {
     "input": 77,
     "output": 78,
     "interpolation": "LINEAR"
    },
    {
     "input": 79,
     "output": 80,
     "interpolation": "LINEAR"
    },
    {
     "input": 81,
     "output": 82,
     "interpolation": "LINEAR"
    },
    {
     "input": 83,
     "output": 84,
     "interpolation": "LINEAR"
    },
    {
     "input": 85,
     "output": 86,
     "interpolation": "LINEAR"
    },
    {
     "input": 87,
     "output": 88,
     "interpolation": "LINEAR"
    },
    {
     "input": 89,
     "output": 90,
     "interpolation": "LINEAR"
    },
    {
     "input": 91,
     "output": 92,
     "interpolation": "LINEAR"
    },
    {
     "input": 93,
     "output": 94,
     "interpolation": "LINEAR"
    },
    {
     "input": 95,
     "output": 96,
     "interpolation": "LINEAR"
    }
   ],
   "channels": [
    {
     "sampler": 0,
     "target": {
      "node": 3,
      "path": "rotation"
     }
    },
    {
     "sampler": 1,
     "target": {
      "node": 5,
      "path": "rotation"
     }
    },
    {
     "sampler": 2,
     "target": {
      "node": 10,
      "path": "rotation"
     }
    },
    {
     "sampler": 3,
     "target": {
      "node": 9,
      "path": "rotation"
     }
    },
    {
     "sampler": 4,
     "target": {
      "node": 14,
      "path": "rotation"
     }
    },
    {
     "sampler": 5,
     "target": {
      "node": 13,
      "path": "rotation"
     }
    },
    {
     "sampler": 6,
     "target": {
      "node": 8,
      "path": "rotation"
     }
    },
    {
     "sampler": 7,
     "target": {
      "node": 7,
      "path": "rotation"
     }
    },
    {
     "sampler": 8,
     "target": {
      "node": 12,
      "path": "rotation"
     }
    },
    {
     "sampler": 9,
     "target": {
      "node": 11,
      "path": "rotation"
     }
    },
    {
     "sampler": 10,
     "target": {
      "node": 4,
      "path": "rotation"
     }
    },
    {
     "sampler": 11,
     "target": {
      "node": 1,
      "path": "rotation"
     }
    },
    {
     "sampler": 12,
     "target": {
      "node": 2,
      "path": "rotation"
     }
    },
    {
     "sampler": 13,
     "target": {
      "node": 6,
      "path": "rotation"
     }
    },
    {
     "sampler": 14,
     "target": {
      "node": 1,
      "path": "translation"
     }
    }
   ]
  }
 ]
}