{
 "asset": {
  "version": "2.0",
  "generator": "parnitha tools/gen_animals_new.py"
 },
 "scene": 0,
 "scenes": [
  {
   "name": "baby_sheep_new",
   "nodes": [
    0,
    1
   ]
  }
 ],
 "nodes": [
  {
   "name": "baby_sheep_new_mesh",
   "mesh": 0,
   "skin": 0
  },
  {
   "name": "root",
   "translation": [
    0.0,
    0.0,
    0.0
   ],
   "children": [
    2
   ]
  },
  {
   "name": "spine",
   "translation": [
    0.0,
    0.24294400000000002,
    0.20800000000000002
   ],
   "children": [
    3,
    6,
    9,
    13
   ]
  },
  {
   "name": "chest",
   "translation": [
    0.0,
    0.005199999999999982,
    -0.41600000000000004
   ],
   "children": [
    4,
    7,
    11
   ]
  },
  {
   "name": "neck",
   "translation": [
    0.0,
    0.020800000000000013,
    0.0
   ],
   "children": [
    5
   ]
  },
  {
   "name": "head",
   "translation": [
    0.0,
    0.029952000000000034,
    -0.05615999999999999
   ]
  },
  {
   "name": "tail",
   "translation": [
    0.0,
    0.0,
    0.0
   ]
  },
  {
   "name": "leg_fl_upper",
   "translation": [
    0.06344,
    -0.04680000000000001,
    0.07800000000000001
   ],
   "children": [
    8
   ]
  },
  {
   "name": "leg_fl_lower",
   "translation": [
    0.0,
    -0.09380799999999999,
    0.0
   ]
  },
  {
   "name": "leg_bl_upper",
   "translation": [
    0.06864,
    -0.041600000000000026,
    -0.0676
   ],
   "children": [
    10
   ]
  },
  {
   "name": "leg_bl_lower",
   "translation": [
    0.0,
    -0.09838399999999999,
    0.0
   ]
  },
  {
   "name": "leg_fr_upper",
   "translation": [
    -0.06344,
    -0.04680000000000001,
    0.07800000000000001
   ],
   "children": [
    12
   ]
  },
  {
   "name": "leg_fr_lower",
   "translation": [
    0.0,
    -0.09380799999999999,
    0.0
   ]
  },
  {
   "name": "leg_br_upper",
   "translation": [
    -0.06864,
    -0.041600000000000026,
    -0.0676
   ],
   "children": [
    14
   ]
  },
  {
   "name": "leg_br_lower",
   "translation": [
    0.0,
    -0.09838399999999999,
    0.0
   ]
  }
 ],
 "meshes": [
  {
   "name": "baby_sheep_new",
   "primitives": [
    {
     "attributes": {
      "POSITION": 0,
      "NORMAL": 1,
      "TEXCOORD_0": 2,
      "JOINTS_0": 3,
      "WEIGHTS_0": 4
     },
     "indices": 5,
     "material": 0,
     "mode": 4
    }
   ]
  }
 ],
 "skins": [
  {
   "name": "baby_sheep_new_skin",
   "inverseBindMatrices": 6,
   "skeleton": 1,
   "joints": [
    1,
    2,
    3,
    4,
    5,
    6,
    7,
    8,
    9,
    10,
    11,
    12,
    13,
    14
   ]
  }
 ],
 "materials": [
  {
   "name": "baby_sheep_new_mat",
   "pbrMetallicRoughness": {
    "metallicFactor": 0.0,
    "roughnessFactor": 1.0,
    "baseColorTexture": {
     "index": 0
    }
   },
   "doubleSided": false
  }
 ],
 "bufferViews": [
  {
   "buffer": 0,
   "byteOffset": 0,
   "byteLength": 5184,
   "target": 34962
  },
  {
   "buffer": 0,
   "byteOffset": 5184,
   "byteLength": 5184,
   "target": 34962
  },
  {
   "buffer": 0,
   "byteOffset": 10368,
   "byteLength": 3456,
   "target": 34962
  },
  {
   "buffer": 0,
   "byteOffset": 13824,
   "byteLength": 3456,
   "target": 34962
  },
  {
   "buffer": 0,
   "byteOffset": 17280,
   "byteLength": 6912,
   "target": 34962
  },
  {
   "buffer": 0,
   "byteOffset": 24192,
   "byteLength": 2544,
   "target": 34963
  },
  {
   "buffer": 0,
   "byteOffset": 26736,
   "byteLength": 896
  },
  {
   "buffer": 0,
   "byteOffset": 27632,
   "byteLength": 68
  },
  {
   "buffer": 0,
   "byteOffset": 27700,
   "byteLength": 272
  },
  {
   "buffer": 0,
   "byteOffset": 27972,
   "byteLength": 68
  },
  {
   "buffer": 0,
   "byteOffset": 28040,
   "byteLength": 272
  },
  {
   "buffer": 0,
   "byteOffset": 28312,
   "byteLength": 68
  },
  {
   "buffer": 0,
   "byteOffset": 28380,
   "byteLength": 272
  },
  {
   "buffer": 0,
   "byteOffset": 28652,
   "byteLength": 68
  },
  {
   "buffer": 0,
   "byteOffset": 28720,
   "byteLength": 272
  },
  {
   "buffer": 0,
   "byteOffset": 28992,
   "byteLength": 68
  },
  {
   "buffer": 0,
   "byteOffset": 29060,
   "byteLength": 272
  },
  {
   "buffer": 0,
   "byteOffset": 29332,
   "byteLength": 68
  },
  {
   "buffer": 0,
   "byteOffset": 29400,
   "byteLength": 272
  },
  {
   "buffer": 0,
   "byteOffset": 29672,
   "byteLength": 68
  },
  {
   "buffer": 0,
   "byteOffset": 29740,
   "byteLength": 272
  },
  {
   "buffer": 0,
   "byteOffset": 30012,
   "byteLength": 68
  },
  {
   "buffer": 0,
   "byteOffset": 30080,
   "byteLength": 272
  },
  {
   "buffer": 0,
   "byteOffset": 30352,
   "byteLength": 68
  },
  {
   "buffer": 0,
   "byteOffset": 30420,
   "byteLength": 272
  },
  {
   "buffer": 0,
   "byteOffset": 30692,
   "byteLength": 68
  },
  {
   "buffer": 0,
   "byteOffset": 30760,
   "byteLength": 272
  },
  {
   "buffer": 0,
   "byteOffset": 31032,
   "byteLength": 68
  },
  {
   "buffer": 0,
   "byteOffset": 31100,
   "byteLength": 272
  },
  {
   "buffer": 0,
   "byteOffset": 31372,
   "byteLength": 68
  },
  {
   "buffer": 0,
   "byteOffset": 31440,
   "byteLength": 272
  },
  {
   "buffer": 0,
   "byteOffset": 31712,
   "byteLength": 68
  },
  {
   "buffer": 0,
   "byteOffset": 31780,
   "byteLength": 272
  },
  {
   "buffer": 0,
   "byteOffset": 32052,
   "byteLength": 68
  },
  {
   "buffer": 0,
   "byteOffset": 32120,
   "byteLength": 272
  },
  {
   "buffer": 0,
   "byteOffset": 32392,
   "byteLength": 68
  },
  {
   "buffer": 0,
   "byteOffset": 32460,
   "byteLength": 204
  },
  {
   "buffer": 0,
   "byteOffset": 32664,
   "byteLength": 68
  },
  {
   "buffer": 0,
   "byteOffset": 32732,
   "byteLength": 272
  },
  {
   "buffer": 0,
   "byteOffset": 33004,
   "byteLength": 68
  },
  {
   "buffer": 0,
   "byteOffset": 33072,
   "byteLength": 272
  },
  {
   "buffer": 0,
   "byteOffset": 33344,
   "byteLength": 68
  },
  {
   "buffer": 0,
   "byteOffset": 33412,
   "byteLength": 272
  },
  {
   "buffer": 0,
   "byteOffset": 33684,
   "byteLength": 68
  },
  {
   "buffer": 0,
   "byteOffset": 33752,
   "byteLength": 272
  },
  {
   "buffer": 0,
   "byteOffset": 34024,
   "byteLength": 68
  },
  {
   "buffer": 0,
   "byteOffset": 34092,
   "byteLength": 272
  },
  {
   "buffer": 0,
   "byteOffset": 34364,
   "byteLength": 68
  },
  {
   "buffer": 0,
   "byteOffset": 34432,
   "byteLength": 272
  },
  {
   "buffer": 0,
   "byteOffset": 34704,
   "byteLength": 68
  },
  {
   "buffer": 0,
   "byteOffset": 34772,
   "byteLength": 272
  },
  {
   "buffer": 0,
   "byteOffset": 35044,
   "byteLength": 68
  },
  {
   "buffer": 0,
   "byteOffset": 35112,
   "byteLength": 272
  },
  {
   "buffer": 0,
   "byteOffset": 35384,
   "byteLength": 68
  },
  {
   "buffer": 0,
   "byteOffset": 35452,
   "byteLength": 272
  },
  {
   "buffer": 0,
   "byteOffset": 35724,
   "byteLength": 68
  },
  {
   "buffer": 0,
   "byteOffset": 35792,
   "byteLength": 272
  },
  {
   "buffer": 0,
   "byteOffset": 36064,
   "byteLength": 68
  },
  {
   "buffer": 0,
   "byteOffset": 36132,
   "byteLength": 272
  },
  {
   "buffer": 0,
   "byteOffset": 36404,
   "byteLength": 68
  },
  {
   "buffer": 0,
   "byteOffset": 36472,
   "byteLength": 272
  },
  {
   "buffer": 0,
   "byteOffset": 36744,
   "byteLength": 68
  },
  {
   "buffer": 0,
   "byteOffset": 36812,
   "byteLength": 272
  },
  {
   "buffer": 0,
   "byteOffset": 37084,
   "byteLength": 68
  },
  {
   "buffer": 0,
   "byteOffset": 37152,
   "byteLength": 272
  },
  {
   "buffer": 0,
   "byteOffset": 37424,
   "byteLength": 68
  },
  {
   "buffer": 0,
   "byteOffset": 37492,
   "byteLength": 204
  },
  {
   "buffer": 0,
   "byteOffset": 37696,
   "byteLength": 84
  },
  {
   "buffer": 0,
   "byteOffset": 37780,
   "byteLength": 336
  },
  {
   "buffer": 0,
   "byteOffset": 38116,
   "byteLength": 84
  },
  {
   "buffer": 0,
   "byteOffset": 38200,
   "byteLength": 336
  },
  {
   "buffer": 0,
   "byteOffset": 38536,
   "byteLength": 84
  },
  {
   "buffer": 0,
   "byteOffset": 38620,
   "byteLength": 336
  },
  {
   "buffer": 0,
   "byteOffset": 38956,
   "byteLength": 84
  },
  {
   "buffer": 0,
   "byteOffset": 39040,
   "byteLength": 336
  },
  {
   "buffer": 0,
   "byteOffset": 39376,
   "byteLength": 84
  },
  {
   "buffer": 0,
   "byteOffset": 39460,
   "byteLength": 336
  },
  {
   "buffer": 0,
   "byteOffset": 39796,
   "byteLength": 84
  },
  {
   "buffer": 0,
   "byteOffset": 39880,
   "byteLength": 336
  },
  {
   "buffer": 0,
   "byteOffset": 40216,
   "byteLength": 84
  },
  {
   "buffer": 0,
   "byteOffset": 40300,
   "byteLength": 336
  },
  {
   "buffer": 0,
   "byteOffset": 40636,
   "byteLength": 84
  },
  {
   "buffer": 0,
   "byteOffset": 40720,
   "byteLength": 336
  },
  {
   "buffer": 0,
   "byteOffset": 41056,
   "byteLength": 84
  },
  {
   "buffer": 0,
   "byteOffset": 41140,
   "byteLength": 336
  },
  {
   "buffer": 0,
   "byteOffset": 41476,
   "byteLength": 84
  },
  {
   "buffer": 0,
   "byteOffset": 41560,
   "byteLength": 336
  },
  {
   "buffer": 0,
   "byteOffset": 41896,
   "byteLength": 84
  },
  {
   "buffer": 0,
   "byteOffset": 41980,
   "byteLength": 336
  },
  {
   "buffer": 0,
   "byteOffset": 42316,
   "byteLength": 84
  },
  {
   "buffer": 0,
   "byteOffset": 42400,
   "byteLength": 336
  },
  {
   "buffer": 0,
   "byteOffset": 42736,
   "byteLength": 84
  },
  {
   "buffer": 0,
   "byteOffset": 42820,
   "byteLength": 336
  },
  {
   "buffer": 0,
   "byteOffset": 43156,
   "byteLength": 84
  },
  {
   "buffer": 0,
   "byteOffset": 43240,
   "byteLength": 336
  },
  {
   "buffer": 0,
   "byteOffset": 43576,
   "byteLength": 84
  },
  {
   "buffer": 0,
   "byteOffset": 43660,
   "byteLength": 252
  }
 ],
 "accessors": [
  {
   "bufferView": 0,
   "componentType": 5126,
   "count": 432,
   "type": "VEC3",
   "min": [
    -0.1274,
    0.0,
    -0.3847495882586345
   ],
   "max": [
    0.1274,
    0.38584241520367935,
    0.23791118469560227
   ]
  },
  {
   "bufferView": 1,
   "componentType": 5126,
   "count": 432,
   "type": "VEC3"
  },
  {
   "bufferView": 2,
   "componentType": 5126,
   "count": 432,
   "type": "VEC2"
  },
  {
   "bufferView": 3,
   "componentType": 5123,
   "count": 432,
   "type": "VEC4"
  },
  {
   "bufferView": 4,
   "componentType": 5126,
   "count": 432,
   "type": "VEC4"
  },
  {
   "bufferView": 5,
   "componentType": 5125,
   "count": 636,
   "type": "SCALAR"
  },
  {
   "bufferView": 6,
   "componentType": 5126,
   "count": 14,
   "type": "MAT4"
  },
  {
   "bufferView": 7,
   "componentType": 5126,
   "count": 17,
   "type": "SCALAR",
   "min": [
    0.0
   ],
   "max": [
    3.4
   ]
  },
  {
   "bufferView": 8,
   "componentType": 5126,
   "count": 17,
   "type": "VEC4"
  },
  {
   "bufferView": 9,
   "componentType": 5126,
   "count": 17,
   "type": "SCALAR",
   "min": [
    0.0
   ],
   "max": [
    3.4
   ]
  },
  {
   "bufferView": 10,
   "componentType": 5126,
   "count": 17,
   "type": "VEC4"
  },
  {
   "bufferView": 11,
   "componentType": 5126,
   "count": 17,
   "type": "SCALAR",
   "min": [
    0.0
   ],
   "max": [
    3.4
   ]
  },
  {
   "bufferView": 12,
   "componentType": 5126,
   "count": 17,
   "type": "VEC4"
  },
  {
   "bufferView": 13,
   "componentType": 5126,
   "count": 17,
   "type": "SCALAR",
   "min": [
    0.0
   ],
   "max": [
    3.4
   ]
  },
  {
   "bufferView": 14,
   "componentType": 5126,
   "count": 17,
   "type": "VEC4"
  },
  {
   "bufferView": 15,
   "componentType": 5126,
   "count": 17,
   "type": "SCALAR",
   "min": [
    0.0
   ],
   "max": [
    3.4
   ]
  },
  {
   "bufferView": 16,
   "componentType": 5126,
   "count": 17,
   "type": "VEC4"
  },
  {
   "bufferView": 17,
   "componentType": 5126,
   "count": 17,
   "type": "SCALAR",
   "min": [
    0.0
   ],
   "max": [
    3.4
   ]
  },
  {
   "bufferView": 18,
   "componentType": 5126,
   "count": 17,
   "type": "VEC4"
  },
  {
   "bufferView": 19,
   "componentType": 5126,
   "count": 17,
   "type": "SCALAR",
   "min": [
    0.0
   ],
   "max": [
    3.4
   ]
  },
  {
   "bufferView": 20,
   "componentType": 5126,
   "count": 17,
   "type": "VEC4"
  },
  {
   "bufferView": 21,
   "componentType": 5126,
   "count": 17,
   "type": "SCALAR",
   "min": [
    0.0
   ],
   "max": [
    3.4
   ]
  },
  {
   "bufferView": 22,
   "componentType": 5126,
   "count": 17,
   "type": "VEC4"
  },
  {
   "bufferView": 23,
   "componentType": 5126,
   "count": 17,
   "type": "SCALAR",
   "min": [
    0.0
   ],
   "max": [
    3.4
   ]
  },
  {
   "bufferView": 24,
   "componentType": 5126,
   "count": 17,
   "type": "VEC4"
  },
  {
   "bufferView": 25,
   "componentType": 5126,
   "count": 17,
   "type": "SCALAR",
   "min": [
    0.0
   ],
   "max": [
    3.4
   ]
  },
  {
   "bufferView": 26,
   "componentType": 5126,
   "count": 17,
   "type": "VEC4"
  },
  {
   "bufferView": 27,
   "componentType": 5126,
   "count": 17,
   "type": "SCALAR",
   "min": [
    0.0
   ],
   "max": [
    3.4
   ]
  },
  {
   "bufferView": 28,
   "componentType": 5126,
   "count": 17,
   "type": "VEC4"
  },
  {
   "bufferView": 29,
   "componentType": 5126,
   "count": 17,
   "type": "SCALAR",
   "min": [
    0.0
   ],
   "max": [
    3.4
   ]
  },
  {
   "bufferView": 30,
   "componentType": 5126,
   "count": 17,
   "type": "VEC4"
  },
  {
   "bufferView": 31,
   "componentType": 5126,
   "count": 17,
   "type": "SCALAR",
   "min": [
    0.0
   ],
   "max": [
    3.4
   ]
  },
  {
   "bufferView": 32,
   "componentType": 5126,
   "count": 17,
   "type": "VEC4"
  },
  {
   "bufferView": 33,
   "componentType": 5126,
   "count": 17,
   "type": "SCALAR",
   "min": [
    0.0
   ],
   "max": [
    3.4
   ]
  },
  {
   "bufferView": 34,
   "componentType": 5126,
   "count": 17,
   "type": "VEC4"
  },
  {
   "bufferView": 35,
   "componentType": 5126,
   "count": 17,
   "type": "SCALAR",
   "min": [
    0.0
   ],
   "max": [
    3.4
   ]
  },
  {
   "bufferView": 36,
   "componentType": 5126,
   "count": 17,
   "type": "VEC3"
  },
  {
   "bufferView": 37,
   "componentType": 5126,
   "count": 17,
   "type": "SCALAR",
   "min": [
    0.0
   ],
   "max": [
    0.5148
   ]
  },
  {
   "bufferView": 38,
   "componentType": 5126,
   "count": 17,
   "type": "VEC4"
  },
  {
   "bufferView": 39,
   "componentType": 5126,
   "count": 17,
   "type": "SCALAR",
   "min": [
    0.0
   ],
   "max": [
    0.5148
   ]
  },
  {
   "bufferView": 40,
   "componentType": 5126,
   "count": 17,
   "type": "VEC4"
  },
  {
   "bufferView": 41,
   "componentType": 5126,
   "count": 17,
   "type": "SCALAR",
   "min": [
    0.0
   ],
   "max": [
    0.5148
   ]
  },
  {
   "bufferView": 42,
   "componentType": 5126,
   "count": 17,
   "type": "VEC4"
  },
  {
   "bufferView": 43,
   "componentType": 5126,
   "count": 17,
   "type": "SCALAR",
   "min": [
    0.0
   ],
   "max": [
    0.5148
   ]
  },
  {
   "bufferView": 44,
   "componentType": 5126,
   "count": 17,
   "type": "VEC4"
  },
  {
   "bufferView": 45,
   "componentType": 5126,
   "count": 17,
   "type": "SCALAR",
   "min": [
    0.0
   ],
   "max": [
    0.5148
   ]
  },
  {
   "bufferView": 46,
   "componentType": 5126,
   "count": 17,
   "type": "VEC4"
  },
  {
   "bufferView": 47,
   "componentType": 5126,
   "count": 17,
   "type": "SCALAR",
   "min": [
    0.0
   ],
   "max": [
    0.5148
   ]
  },
  {
   "bufferView": 48,
   "componentType": 5126,
   "count": 17,
   "type": "VEC4"
  },
  {
   "bufferView": 49,
   "componentType": 5126,
   "count": 17,
   "type": "SCALAR",
   "min": [
    0.0
   ],
   "max": [
    0.5148
   ]
  },
  {
   "bufferView": 50,
   "componentType": 5126,
   "count": 17,
   "type": "VEC4"
  },
  {
   "bufferView": 51,
   "componentType": 5126,
   "count": 17,
   "type": "SCALAR",
   "min": [
    0.0
   ],
   "max": [
    0.5148
   ]
  },
  {
   "bufferView": 52,
   "componentType": 5126,
   "count": 17,
   "type": "VEC4"
  },
  {
   "bufferView": 53,
   "componentType": 5126,
   "count": 17,
   "type": "SCALAR",
   "min": [
    0.0
   ],
   "max": [
    0.5148
   ]
  },
  {
   "bufferView": 54,
   "componentType": 5126,
   "count": 17,
   "type": "VEC4"
  },
  {
   "bufferView": 55,
   "componentType": 5126,
   "count": 17,
   "type": "SCALAR",
   "min": [
    0.0
   ],
   "max": [
    0.5148
   ]
  },
  {
   "bufferView": 56,
   "componentType": 5126,
   "count": 17,
   "type": "VEC4"
  },
  {
   "bufferView": 57,
   "componentType": 5126,
   "count": 17,
   "type": "SCALAR",
   "min": [
    0.0
   ],
   "max": [
    0.5148
   ]
  },
  {
   "bufferView": 58,
   "componentType": 5126,
   "count": 17,
   "type": "VEC4"
  },
  {
   "bufferView": 59,
   "componentType": 5126,
   "count": 17,
   "type": "SCALAR",
   "min": [
    0.0
   ],
   "max": [
    0.5148
   ]
  },
  {
   "bufferView": 60,
   "componentType": 5126,
   "count": 17,
   "type": "VEC4"
  },
  {
   "bufferView": 61,
   "componentType": 5126,
   "count": 17,
   "type": "SCALAR",
   "min": [
    0.0
   ],
   "max": [
    0.5148
   ]
  },
  {
   "bufferView": 62,
   "componentType": 5126,
   "count": 17,
   "type": "VEC4"
  },
  {
   "bufferView": 63,
   "componentType": 5126,
   "count": 17,
   "type": "SCALAR",
   "min": [
    0.0
   ],
   "max": [
    0.5148
   ]
  },
  {
   "bufferView": 64,
   "componentType": 5126,
   "count": 17,
   "type": "VEC4"
  },
  {
   "bufferView": 65,
   "componentType": 5126,
   "count": 17,
   "type": "SCALAR",
   "min": [
    0.0
   ],
   "max": [
    0.5148
   ]
  },
  {
   "bufferView": 66,
   "componentType": 5126,
   "count": 17,
   "type": "VEC3"
  },
  {
   "bufferView": 67,
   "componentType": 5126,
   "count": 21,
   "type": "SCALAR",
   "min": [
    0.0
   ],
   "max": [
    1.5
   ]
  },
  {
   "bufferView": 68,
   "componentType": 5126,
   "count": 21,
   "type": "VEC4"
  },
  {
   "bufferView": 69,
   "componentType": 5126,
   "count": 21,
   "type": "SCALAR",
   "min": [
    0.0
   ],
   "max": [
    1.5
   ]
  },
  {
   "bufferView": 70,
   "componentType": 5126,
   "count": 21,
   "type": "VEC4"
  },
  {
   "bufferView": 71,
   "componentType": 5126,
   "count": 21,
   "type": "SCALAR",
   "min": [
    0.0
   ],
   "max": [
    1.5
   ]
  },
  {
   "bufferView": 72,
   "componentType": 5126,
   "count": 21,
   "type": "VEC4"
  },
  {
   "bufferView": 73,
   "componentType": 5126,
   "count": 21,
   "type": "SCALAR",
   "min": [
    0.0
   ],
   "max": [
    1.5
   ]
  },
  {
   "bufferView": 74,
   "componentType": 5126,
   "count": 21,
   "type": "VEC4"
  },
  {
   "bufferView": 75,
   "componentType": 5126,
   "count": 21,
   "type": "SCALAR",
   "min": [
    0.0
   ],
   "max": [
    1.5
   ]
  },
  {
   "bufferView": 76,
   "componentType": 5126,
   "count": 21,
   "type": "VEC4"
  },
  {
   "bufferView": 77,
   "componentType": 5126,
   "count": 21,
   "type": "SCALAR",
   "min": [
    0.0
   ],
   "max": [
    1.5
   ]
  },
  {
   "bufferView": 78,
   "componentType": 5126,
   "count": 21,
   "type": "VEC4"
  },
  {
   "bufferView": 79,
   "componentType": 5126,
   "count": 21,
   "type": "SCALAR",
   "min": [
    0.0
   ],
   "max": [
    1.5
   ]
  },
  {
   "bufferView": 80,
   "componentType": 5126,
   "count": 21,
   "type": "VEC4"
  },
  {
   "bufferView": 81,
   "componentType": 5126,
   "count": 21,
   "type": "SCALAR",
   "min": [
    0.0
   ],
   "max": [
    1.5
   ]
  },
  {
   "bufferView": 82,
   "componentType": 5126,
   "count": 21,
   "type": "VEC4"
  },
  {
   "bufferView": 83,
   "componentType": 5126,
   "count": 21,
   "type": "SCALAR",
   "min": [
    0.0
   ],
   "max": [
    1.5
   ]
  },
  {
   "bufferView": 84,
   "componentType": 5126,
   "count": 21,
   "type": "VEC4"
  },
  {
   "bufferView": 85,
   "componentType": 5126,
   "count": 21,
   "type": "SCALAR",
   "min": [
    0.0
   ],
   "max": [
    1.5
   ]
  },
  {
   "bufferView": 86,
   "componentType": 5126,
   "count": 21,
   "type": "VEC4"
  },
  {
   "bufferView": 87,
   "componentType": 5126,
   "count": 21,
   "type": "SCALAR",
   "min": [
    0.0
   ],
   "max": [
    1.5
   ]
  },
  {
   "bufferView": 88,
   "componentType": 5126,
   "count": 21,
   "type": "VEC4"
  },
  {
   "bufferView": 89,
   "componentType": 5126,
   "count": 21,
   "type": "SCALAR",
   "min": [
    0.0
   ],
   "max": [
    1.5
   ]
  },
  {
   "bufferView": 90,
   "componentType": 5126,
   "count": 21,
   "type": "VEC4"
  },
  {
   "bufferView": 91,
   "componentType": 5126,
   "count": 21,
   "type": "SCALAR",
   "min": [
    0.0
   ],
   "max": [
    1.5
   ]
  },
  {
   "bufferView": 92,
   "componentType": 5126,
   "count": 21,
   "type": "VEC4"
  },
  {
   "bufferView": 93,
   "componentType": 5126,
   "count": 21,
   "type": "SCALAR",
   "min": [
    0.0
   ],
   "max": [
    1.5
   ]
  },
  {
   "bufferView": 94,
   "componentType": 5126,
   "count": 21,
   "type": "VEC4"
  },
  {
   "bufferView": 95,
   "componentType": 5126,
   "count": 21,
   "type": "SCALAR",
   "min": [
    0.0
   ],
   "max": [
    1.5
   ]
  },
  {
   "bufferView": 96,
   "componentType": 5126,
   "count": 21,
   "type": "VEC3"
  }
 ],
 "buffers": [
  {
   "byteLength": 43912,
   "uri": "data:application/octet-stream;base64,"
  }
 ],
 "textures": [
  {
   "sampler": 0,
   "source": 0
  }
 ],
 "samplers": [
  {
   "magFilter": 9728,
   "minFilter": 9984,
   "wrapS": 33071,
   "wrapT": 33071
  }
 ],
 "images": [
  {
   "uri": "../../textures/animals/baby_sheep_atlas_new.png",
   "mimeType": "image/png"
  }
 ],
 "animations": [
  {
   "name": "idle",
   "samplers": [
    {
     "input": 7,
     "output": 8,
     "interpolation": "LINEAR"
    },
    {
     "input": 9,
     "output": 10,
     "interpolation": "LINEAR"
    },
    {
     "input": 11,
     "output": 12,
     "interpolation": "LINEAR"
    },
    {
     "input": 13,
     "output": 14,
     "interpolation": "LINEAR"
    },
    {
     "input": 15,
     "output": 16,
     "interpolation": "LINEAR"
    },
    {
     "input": 17,
     "output": 18,
     "interpolation": "LINEAR"
    },
    {
     "input": 19,
     "output": 20,
     "interpolation": "LINEAR"
    },
    {
     "input": 21,
     "output": 22,
     "interpolation": "LINEAR"
    },
    {
     "input": 23,
     "output": 24,
     "interpolation": "LINEAR"
    },
    {
     "input": 25,
     "output": 26,
     "interpolation": "LINEAR"
    },
    {
     "input": 27,
     "output": 28,
     "interpolation": "LINEAR"
    },
    {
     "input": 29,
     "output": 30,
     "interpolation": "LINEAR"
    },
    {
     "input": 31,
     "output": 32,
     "interpolation": "LINEAR"
    },
    {
     "input": 33,
     "output": 34,
     "interpolation": "LINEAR"
    },
    {
     "input": 35,
     "output": 36,
     "interpolation": "LINEAR"
    }
   ],
   "channels": [
    {
     "sampler": 0,
     "target": {
      "node": 3,
      "path": "rotation"
     }
    },
    {
     "sampler": 1,
     "target": {
      "node": 5,
      "path": "rotation"
     }
    },
    {
     "sampler": 2,
     "target": {
      "node": 10,
      "path": "rotation"
     }
    },
    {
     "sampler": 3,
     "target": {
      "node": 9,
      "path": "rotation"
     }
    },
    {
     "sampler": 4,
     "target": {
      "node": 14,
      "path": "rotation"
     }
    },
    {
     "sampler": 5,
     "target": {
      "node": 13,
      "path": "rotation"
     }
    },
    {
     "sampler": 6,
     "target": {
      "node": 8,
      "path": "rotation"
     }
    },
    {
     "sampler": 7,
     "target": {
      "node": 7,
      "path": "rotation"
     }
    },
    {
     "sampler": 8,
     "target": {
      "node": 12,
      "path": "rotation"
     }
    },
    {
     "sampler": 9,
     "target": {
      "node": 11,
      "path": "rotation"
     }
    },
    {
     "sampler": 10,
     "target": {
      "node": 4,
      "path": "rotation"
     }
    },
    {
     "sampler": 11,
     "target": {
      "node": 1,
      "path": "rotation"
     }
    },
    {
     "sampler": 12,
     "target": {
      "node": 2,
      "path": "rotation"
     }
    },
    {
     "sampler": 13,
     "target": {
      "node": 6,
      "path": "rotation"
     }
    },
    {
     "sampler": 14,
     "target": {
      "node": 1,
      "path": "translation"
     }
    }
   ]
  },
  {
   "name": "walk",
   "samplers": [
    {
     "input": 37,
     "output": 38,
     "interpolation": "LINEAR"
    },
    {
     "input": 39,
     "output": 40,
     "interpolation": "LINEAR"
    },
    {
     "input": 41,
     "output": 42,
     "interpolation": "LINEAR"
    },
    {
     "input": 43,
     "output": 44,
     "interpolation": "LINEAR"
    },
    {
     "input": 45,
     "output": 46,
     "interpolation": "LINEAR"
    },
    {
     "input": 47,
     "output": 48,
     "interpolation": "LINEAR"
    },
    {
     "input": 49,
     "output": 50,
     "interpolation": "LINEAR"
    },
    {
     "input": 51,
     "output": 52,
     "interpolation": "LINEAR"
    },
    {
     "input": 53,
     "output": 54,
     "interpolation": "LINEAR"
    },
    {
     "input": 55,
     "output": 56,
     "interpolation": "LINEAR"
    },
    {
     "input": 57,
     "output": 58,
     "interpolation": "LINEAR"
    },
    {
     "input": 59,
     "output": 60,
     "interpolation": "LINEAR"
    },
    {
     "input": 61,
     "output": 62,
     "interpolation": "LINEAR"
    },
    {
     "input": 63,
     "output": 64,
     "interpolation": "LINEAR"
    },
    {
     "input": 65,
     "output": 66,
     "interpolation": "LINEAR"
    }
   ],
   "channels": [
    {
     "sampler": 0,
     "target": {
      "node": 3,
      "path": "rotation"
     }
    },
    {
     "sampler": 1,
     "target": {
      "node": 5,
      "path": "rotation"
     }
    },
    {
     "sampler": 2,
     "target": {
      "node": 10,
      "path": "rotation"
     }
    },
    {
     "sampler": 3,
     "target": {
      "node": 9,
      "path": "rotation"
     }
    },
    {
     "sampler": 4,
     "target": {
      "node": 14,
      "path": "rotation"
     }
    },
    {
     "sampler": 5,
     "target": {
      "node": 13,
      "path": "rotation"
     }
    },
    {
     "sampler": 6,
     "target": {
      "node": 8,
      "path": "rotation"
     }
    },
    {
     "sampler": 7,
     "target": {
      "node": 7,
      "path": "rotation"
     }
    },
    {
     "sampler": 8,
     "target": {
      "node": 12,
      "path": "rotation"
     }
    },
    {
     "sampler": 9,
     "target": {
      "node": 11,
      "path": "rotation"
     }
    },
    {
     "sampler": 10,
     "target": {
      "node": 4,
      "path": "rotation"
     }
    },
    {
     "sampler": 11,
     "target": {
      "node": 1,
      "path": "rotation"
     }
    },
    {
     "sampler": 12,
     "target": {
      "node": 2,
      "path": "rotation"
     }
    },
    {
     "sampler": 13,
     "target": {
      "node": 6,
      "path": "rotation"
     }
    },
    {
     "sampler": 14,
     "target": {
      "node": 1,
      "path": "translation"
     }
    }
   ]
  },
  {
   "name": "death",
   "samplers": [
    {
     "input": 67,
     "output": 68,
     "interpolation": "LINEAR"
    },
    {
     "input": 69,
     "output": 70,
     "interpolation": "LINEAR"
    },
    {
     "input": 71,
     "output": 72,
     "interpolation": "LINEAR"
    },
    {
     "input": 73,
     "output": 74,
     "interpolation": "LINEAR"
    },
    {
     "input": 75,
     "output": 76,
     "interpolation": "LINEAR"
    },
    {
     "input": 77,
     "output": 78,
     "interpolation": "LINEAR"
    },
    {
     "input": 79,
     "output": 80,
     "interpolation": "LINEAR"
    },
    {
     "input": 81,
     "output": 82,
     "interpolation": "LINEAR"
    },
    {
     "input": 83,
     "output": 84,
     "interpolation": "LINEAR"
    },
    {
     "input": 85,
     "output": 86,
     "interpolation": "LINEAR"
    },
    {
     "input": 87,
     "output": 88,
     "interpolation": "LINEAR"
    },
    {
     "input": 89,
     "output": 90,
     "interpolation": "LINEAR"
    },
    {
     "input": 91,
     "output": 92,
     "interpolation": "LINEAR"
    },
    {
     "input": 93,
     "output": 94,
     "interpolation": "LINEAR"
    },
    {
     "input": 95,
     "output": 96,
     "interpolation": "LINEAR"
    }
   ],
   "channels": [
    {
     "sampler": 0,
     "target": {
      "node": 3,
      "path": "rotation"
     }
    },
    {
     "sampler": 1,
     "target": {
      "node": 5,
      "path": "rotation"
     }
    },
    {
     "sampler": 2,
     "target": {
      "node": 10,
      "path": "rotation"
     }
    },
    {
     "sampler": 3,
     "target": {
      "node": 9,
      "path": "rotation"
     }
    },
    {
     "sampler": 4,
     "target": {
      "node": 14,
      "path": "rotation"
     }
    },
    {
     "sampler": 5,
     "target": {
      "node": 13,
      "path": "rotation"
     }
    },
    {
     "sampler": 6,
     "target": {
      "node": 8,
      "path": "rotation"
     }
    },
    {
     "sampler": 7,
     "target": {
      "node": 7,
      "path": "rotation"
     }
    },
    {
     "sampler": 8,
     "target": {
      "node": 12,
      "path": "rotation"
     }
    },
    {
     "sampler": 9,
     "target": {
      "node": 11,
      "path": "rotation"
     }
    },
    {
     "sampler": 10,
     "target": {
      "node": 4,
      "path": "rotation"
     }
    },
    {
     "sampler": 11,
     "target": {
      "node": 1,
      "path": "rotation"
     }
    },
    {
     "sampler": 12,
     "target": {
      "node": 2,
      "path": "rotation"
     }
    },
    {
     "sampler": 13,
     "target": {
      "node": 6,
      "path": "rotation"
     }
    },
    {
     "sampler": 14,
     "target": {
      "node": 1,
      "path": "translation"
     }
    }
   ]
  }
 ]
}