{
 "asset": {
  "version": "2.0",
  "generator": "parnitha tools/gen_animals_new.py"
 },
 "scene": 0,
 "scenes": [
  {
   "name": "sheep_new",
   "nodes": [
    0,
    1
   ]
  }
 ],
 "nodes": [
  {
   "name": "sheep_new_mesh",
   "mesh": 0,
   "skin": 0
  },
  {
   "name": "root",
   "translation": [
    0.0,
    0.0,
    0.0
   ],
   "children": [
    2
   ]
  },
  {
   "name": "spine",
   "translation": [
    0.0,
    0.52,
    0.4
   ],
   "children": [
    3,
    6,
    9,
    13
   ]
  },
  {
   "name": "chest",
   "translation": [
    0.0,
    0.010000000000000009,
    -0.8
   ],
   "children": [
    4,
    7,
    11
   ]
  },
  {
   "name": "neck",
   "translation": [
    0.0,
    0.039999999999999925,
    0.0
   ],
   "children": [
    5
   ]
  },
  {
   "name": "head",
   "translation": [
    0.0,
    0.08000000000000007,
    -0.15000000000000002
   ]
  },
  {
   "name": "tail",
   "translation": [
    0.0,
    0.0,
    0.0
   ]
  },
  {
   "name": "leg_fl_upper",
   "translation": [
    0.122,
    -0.09000000000000002,
    0.15000000000000002
   ],
   "children": [
    8
   ]
  },
  {
   "name": "leg_fl_lower",
   "translation": [
    0.0,
    -0.20500000000000002,
    0.0
   ]
  },
  {
   "name": "leg_bl_upper",
   "translation": [
    0.132,
    -0.08000000000000002,
    -0.13
   ],
   "children": [
    10
   ]
  },
  {
   "name": "leg_bl_lower",
   "translation": [
    0.0,
    -0.215,
    0.0
   ]
  },
  {
   "name": "leg_fr_upper",
   "translation": [
    -0.122,
    -0.09000000000000002,
    0.15000000000000002
   ],
   "children": [
    12
   ]
  },
  {
   "name": "leg_fr_lower",
   "translation": [
    0.0,
    -0.20500000000000002,
    0.0
   ]
  },
  {
   "name": "leg_br_upper",
   "translation": [
    -0.132,
    -0.08000000000000002,
    -0.13
   ],
   "children": [
    14
   ]
  },
  {
   "name": "leg_br_lower",
   "translation": [
    0.0,
    -0.215,
    0.0
   ]
  }
 ],
 "meshes": [
  {
   "name": "sheep_new",
   "primitives": [
    {
     "attributes": {
      "POSITION": 0,
      "NORMAL": 1,
      "TEXCOORD_0": 2,
      "JOINTS_0": 3,
      "WEIGHTS_0": 4
     },
     "indices": 5,
     "material": 0,
     "mode": 4
    }
   ]
  }
 ],
 "skins": [
  {
   "name": "sheep_new_skin",
   "inverseBindMatrices": 6,
   "skeleton": 1,
   "joints": [
    1,
    2,
    3,
    4,
    5,
    6,
    7,
    8,
    9,
    10,
    11,
    12,
    13,
    14
   ]
  }
 ],
 "materials": [
  {
   "name": "sheep_new_mat",
   "pbrMetallicRoughness": {
    "metallicFactor": 0.0,
    "roughnessFactor": 1.0,
    "baseColorTexture": {
     "index": 0
    }
   },
   "doubleSided": false
  }
 ],
 "bufferViews": [
  {
   "buffer": 0,
   "byteOffset": 0,
   "byteLength": 6336,
   "target": 34962
  },
  {
   "buffer": 0,
   "byteOffset": 6336,
   "byteLength": 6336,
   "target": 34962
  },
  {
   "buffer": 0,
   "byteOffset": 12672,
   "byteLength": 4224,
   "target": 34962
  },
  {
   "buffer": 0,
   "byteOffset": 16896,
   "byteLength": 4224,
   "target": 34962
  },
  {
   "buffer": 0,
   "byteOffset": 21120,
   "byteLength": 8448,
   "target": 34962
  },
  {
   "buffer": 0,
   "byteOffset": 29568,
   "byteLength": 3120,
   "target": 34963
  },
  {
   "buffer": 0,
   "byteOffset": 32688,
   "byteLength": 896
  },
  {
   "buffer": 0,
   "byteOffset": 33584,
   "byteLength": 68
  },
  {
   "buffer": 0,
   "byteOffset": 33652,
   "byteLength": 272
  },
  {
   "buffer": 0,
   "byteOffset": 33924,
   "byteLength": 68
  },
  {
   "buffer": 0,
   "byteOffset": 33992,
   "byteLength": 272
  },
  {
   "buffer": 0,
   "byteOffset": 34264,
   "byteLength": 68
  },
  {
   "buffer": 0,
   "byteOffset": 34332,
   "byteLength": 272
  },
  {
   "buffer": 0,
   "byteOffset": 34604,
   "byteLength": 68
  },
  {
   "buffer": 0,
   "byteOffset": 34672,
   "byteLength": 272
  },
  {
   "buffer": 0,
   "byteOffset": 34944,
   "byteLength": 68
  },
  {
   "buffer": 0,
   "byteOffset": 35012,
   "byteLength": 272
  },
  {
   "buffer": 0,
   "byteOffset": 35284,
   "byteLength": 68
  },
  {
   "buffer": 0,
   "byteOffset": 35352,
   "byteLength": 272
  },
  {
   "buffer": 0,
   "byteOffset": 35624,
   "byteLength": 68
  },
  {
   "buffer": 0,
   "byteOffset": 35692,
   "byteLength": 272
  },
  {
   "buffer": 0,
   "byteOffset": 35964,
   "byteLength": 68
  },
  {
   "buffer": 0,
   "byteOffset": 36032,
   "byteLength": 272
  },
  {
   "buffer": 0,
   "byteOffset": 36304,
   "byteLength": 68
  },
  {
   "buffer": 0,
   "byteOffset": 36372,
   "byteLength": 272
  },
  {
   "buffer": 0,
   "byteOffset": 36644,
   "byteLength": 68
  },
  {
   "buffer": 0,
   "byteOffset": 36712,
   "byteLength": 272
  },
  {
   "buffer": 0,
   "byteOffset": 36984,
   "byteLength": 68
  },
  {
   "buffer": 0,
   "byteOffset": 37052,
   "byteLength": 272
  },
  {
   "buffer": 0,
   "byteOffset": 37324,
   "byteLength": 68
  },
  {
   "buffer": 0,
   "byteOffset": 37392,
   "byteLength": 272
  },
  {
   "buffer": 0,
   "byteOffset": 37664,
   "byteLength": 68
  },
  {
   "buffer": 0,
   "byteOffset": 37732,
   "byteLength": 272
  },
  {
   "buffer": 0,
   "byteOffset": 38004,
   "byteLength": 68
  },
  {
   "buffer": 0,
   "byteOffset": 38072,
   "byteLength": 272
  },
  {
   "buffer": 0,
   "byteOffset": 38344,
   "byteLength": 68
  },
  {
   "buffer": 0,
   "byteOffset": 38412,
   "byteLength": 204
  },
  {
   "buffer": 0,
   "byteOffset": 38616,
   "byteLength": 68
  },
  {
   "buffer": 0,
   "byteOffset": 38684,
   "byteLength": 272
  },
  {
   "buffer": 0,
   "byteOffset": 38956,
   "byteLength": 68
  },
  {
   "buffer": 0,
   "byteOffset": 39024,
   "byteLength": 272
  },
  {
   "buffer": 0,
   "byteOffset": 39296,
   "byteLength": 68
  },
  {
   "buffer": 0,
   "byteOffset": 39364,
   "byteLength": 272
  },
  {
   "buffer": 0,
   "byteOffset": 39636,
   "byteLength": 68
  },
  {
   "buffer": 0,
   "byteOffset": 39704,
   "byteLength": 272
  },
  {
   "buffer": 0,
   "byteOffset": 39976,
   "byteLength": 68
  },
  {
   "buffer": 0,
   "byteOffset": 40044,
   "byteLength": 272
  },
  {
   "buffer": 0,
   "byteOffset": 40316,
   "byteLength": 68
  },
  {
   "buffer": 0,
   "byteOffset": 40384,
   "byteLength": 272
  },
  {
   "buffer": 0,
   "byteOffset": 40656,
   "byteLength": 68
  },
  {
   "buffer": 0,
   "byteOffset": 40724,
   "byteLength": 272
  },
  {
   "buffer": 0,
   "byteOffset": 40996,
   "byteLength": 68
  },
  {
   "buffer": 0,
   "byteOffset": 41064,
   "byteLength": 272
  },
  {
   "buffer": 0,
   "byteOffset": 41336,
   "byteLength": 68
  },
  {
   "buffer": 0,
   "byteOffset": 41404,
   "byteLength": 272
  },
  {
   "buffer": 0,
   "byteOffset": 41676,
   "byteLength": 68
  },
  {
   "buffer": 0,
   "byteOffset": 41744,
   "byteLength": 272
  },
  {
   "buffer": 0,
   "byteOffset": 42016,
   "byteLength": 68
  },
  {
   "buffer": 0,
   "byteOffset": 42084,
   "byteLength": 272
  },
  {
   "buffer": 0,
   "byteOffset": 42356,
   "byteLength": 68
  },
  {
   "buffer": 0,
   "byteOffset": 42424,
   "byteLength": 272
  },
  {
   "buffer": 0,
   "byteOffset": 42696,
   "byteLength": 68
  },
  {
   "buffer": 0,
   "byteOffset": 42764,
   "byteLength": 272
  },
  {
   "buffer": 0,
   "byteOffset": 43036,
   "byteLength": 68
  },
  {
   "buffer": 0,
   "byteOffset": 43104,
   "byteLength": 272
  },
  {
   "buffer": 0,
   "byteOffset": 43376,
   "byteLength": 68
  },
  {
   "buffer": 0,
   "byteOffset": 43444,
   "byteLength": 204
  },
  {
   "buffer": 0,
   "byteOffset": 43648,
   "byteLength": 84
  },
  {
   "buffer": 0,
   "byteOffset": 43732,
   "byteLength": 336
  },
  {
   "buffer": 0,
   "byteOffset": 44068,
   "byteLength": 84
  },
  {
   "buffer": 0,
   "byteOffset": 44152,
   "byteLength": 336
  },
  {
   "buffer": 0,
   "byteOffset": 44488,
   "byteLength": 84
  },
  {
   "buffer": 0,
   "byteOffset": 44572,
   "byteLength": 336
  },
  {
   "buffer": 0,
   "byteOffset": 44908,
   "byteLength": 84
  },
  {
   "buffer": 0,
   "byteOffset": 44992,
   "byteLength": 336
  },
  {
   "buffer": 0,
   "byteOffset": 45328,
   "byteLength": 84
  },
  {
   "buffer": 0,
   "byteOffset": 45412,
   "byteLength": 336
  },
  {
   "buffer": 0,
   "byteOffset": 45748,
   "byteLength": 84
  },
  {
   "buffer": 0,
   "byteOffset": 45832,
   "byteLength": 336
  },
  {
   "buffer": 0,
   "byteOffset": 46168,
   "byteLength": 84
  },
  {
   "buffer": 0,
   "byteOffset": 46252,
   "byteLength": 336
  },
  {
   "buffer": 0,
   "byteOffset": 46588,
   "byteLength": 84
  },
  {
   "buffer": 0,
   "byteOffset": 46672,
   "byteLength": 336
  },
  {
   "buffer": 0,
   "byteOffset": 47008,
   "byteLength": 84
  },
  {
   "buffer": 0,
   "byteOffset": 47092,
   "byteLength": 336
  },
  {
   "buffer": 0,
   "byteOffset": 47428,
   "byteLength": 84
  },
  {
   "buffer": 0,
   "byteOffset": 47512,
   "byteLength": 336
  },
  {
   "buffer": 0,
   "byteOffset": 47848,
   "byteLength": 84
  },
  {
   "buffer": 0,
   "byteOffset": 47932,
   "byteLength": 336
  },
  {
   "buffer": 0,
   "byteOffset": 48268,
   "byteLength": 84
  },
  {
   "buffer": 0,
   "byteOffset": 48352,
   "byteLength": 336
  },
  {
   "buffer": 0,
   "byteOffset": 48688,
   "byteLength": 84
  },
  {
   "buffer": 0,
   "byteOffset": 48772,
   "byteLength": 336
  },
  {
   "buffer": 0,
   "byteOffset": 49108,
   "byteLength": 84
  },
  {
   "buffer": 0,
   "byteOffset": 49192,
   "byteLength": 336
  },
  {
   "buffer": 0,
   "byteOffset": 49528,
   "byteLength": 84
  },
  {
   "buffer": 0,
   "byteOffset": 49612,
   "byteLength": 252
  }
 ],
 "accessors": [
  {
   "bufferView": 0,
   "componentType": 5126,
   "count": 528,
   "type": "VEC3",
   "min": [
    -0.245,
    0.0,
    -0.8083357574154983
   ],
   "max": [
    0.245,
    0.7948046446224603,
    0.4575215090300044
   ]
  },
  {
   "bufferView": 1,
   "componentType": 5126,
   "count": 528,
   "type": "VEC3"
  },
  {
   "bufferView": 2,
   "componentType": 5126,
   "count": 528,
   "type": "VEC2"
  },
  {
   "bufferView": 3,
   "componentType": 5123,
   "count": 528,
   "type": "VEC4"
  },
  {
   "bufferView": 4,
   "componentType": 5126,
   "count": 528,
   "type": "VEC4"
  },
  {
   "bufferView": 5,
   "componentType": 5125,
   "count": 780,
   "type": "SCALAR"
  },
  {
   "bufferView": 6,
   "componentType": 5126,
   "count": 14,
   "type": "MAT4"
  },
  {
   "bufferView": 7,
   "componentType": 5126,
   "count": 17,
   "type": "SCALAR",
   "min": [
    0.0
   ],
   "max": [
    3.4
   ]
  },
  {
   "bufferView": 8,
   "componentType": 5126,
   "count": 17,
   "type": "VEC4"
  },
  {
   "bufferView": 9,
   "componentType": 5126,
   "count": 17,
   "type": "SCALAR",
   "min": [
    0.0
   ],
   "max": [
    3.4
   ]
  },
  {
   "bufferView": 10,
   "componentType": 5126,
   "count": 17,
   "type": "VEC4"
  },
  {
   "bufferView": 11,
   "componentType": 5126,
   "count": 17,
   "type": "SCALAR",
   "min": [
    0.0
   ],
   "max": [
    3.4
   ]
  },
  {
   "bufferView": 12,
   "componentType": 5126,
   "count": 17,
   "type": "VEC4"
  },
  {
   "bufferView": 13,
   "componentType": 5126,
   "count": 17,
   "type": "SCALAR",
   "min": [
    0.0
   ],
   "max": [
    3.4
   ]
  },
  {
   "bufferView": 14,
   "componentType": 5126,
   "count": 17,
   "type": "VEC4"
  },
  {
   "bufferView": 15,
   "componentType": 5126,
   "count": 17,
   "type": "SCALAR",
   "min": [
    0.0
   ],
   "max": [
    3.4
   ]
  },
  {
   "bufferView": 16,
   "componentType": 5126,
   "count": 17,
   "type": "VEC4"
  },
  {
   "bufferView": 17,
   "componentType": 5126,
   "count": 17,
   "type": "SCALAR",
   "min": [
    0.0
   ],
   "max": [
    3.4
   ]
  },
  {
   "bufferView": 18,
   "componentType": 5126,
   "count": 17,
   "type": "VEC4"
  },
  {
   "bufferView": 19,
   "componentType": 5126,
   "count": 17,
   "type": "SCALAR",
   "min": [
    0.0
   ],
   "max": [
    3.4
   ]
  },
  {
   "bufferView": 20,
   "componentType": 5126,
   "count": 17,
   "type": "VEC4"
  },
  {
   "bufferView": 21,
   "componentType": 5126,
   "count": 17,
   "type": "SCALAR",
   "min": [
    0.0
   ],
   "max": [
    3.4
   ]
  },
  {
   "bufferView": 22,
   "componentType": 5126,
   "count": 17,
   "type": "VEC4"
  },
  {
   "bufferView": 23,
   "componentType": 5126,
   "count": 17,
   "type": "SCALAR",
   "min": [
    0.0
   ],
   "max": [
    3.4
   ]
  },
  {
   "bufferView": 24,
   "componentType": 5126,
   "count": 17,
   "type": "VEC4"
  },
  {
   "bufferView": 25,
   "componentType": 5126,
   "count": 17,
   "type": "SCALAR",
   "min": [
    0.0
   ],
   "max": [
    3.4
   ]
  },
  {
   "bufferView": 26,
   "componentType": 5126,
   "count": 17,
   "type": "VEC4"
  },
  {
   "bufferView": 27,
   "componentType": 5126,
   "count": 17,
   "type": "SCALAR",
   "min": [
    0.0
   ],
   "max": [
    3.4
   ]
  },
  {
   "bufferView": 28,
   "componentType": 5126,
   "count": 17,
   "type": "VEC4"
  },
  {
   "bufferView": 29,
   "componentType": 5126,
   "count": 17,
   "type": "SCALAR",
   "min": [
    0.0
   ],
   "max": [
    3.4
   ]
  },
  {
   "bufferView": 30,
   "componentType": 5126,
   "count": 17,
   "type": "VEC4"
  },
  {
   "bufferView": 31,
   "componentType": 5126,
   "count": 17,
   "type": "SCALAR",
   "min": [
    0.0
   ],
   "max": [
    3.4
   ]
  },
  {
   "bufferView": 32,
   "componentType": 5126,
   "count": 17,
   "type": "VEC4"
  },
  {
   "bufferView": 33,
   "componentType": 5126,
   "count": 17,
   "type": "SCALAR",
   "min": [
    0.0
   ],
   "max": [
    3.4
   ]
  },
  {
   "bufferView": 34,
   "componentType": 5126,
   "count": 17,
   "type": "VEC4"
  },
  {
   "bufferView": 35,
   "componentType": 5126,
   "count": 17,
   "type": "SCALAR",
   "min": [
    0.0
   ],
   "max": [
    3.4
   ]
  },
  {
   "bufferView": 36,
   "componentType": 5126,
   "count": 17,
   "type": "VEC3"
  },
  {
   "bufferView": 37,
   "componentType": 5126,
   "count": 17,
   "type": "SCALAR",
   "min": [
    0.0
   ],
   "max": [
    0.66
   ]
  },
  {
   "bufferView": 38,
   "componentType": 5126,
   "count": 17,
   "type": "VEC4"
  },
  {
   "bufferView": 39,
   "componentType": 5126,
   "count": 17,
   "type": "SCALAR",
   "min": [
    0.0
   ],
   "max": [
    0.66
   ]
  },
  {
   "bufferView": 40,
   "componentType": 5126,
   "count": 17,
   "type": "VEC4"
  },
  {
   "bufferView": 41,
   "componentType": 5126,
   "count": 17,
   "type": "SCALAR",
   "min": [
    0.0
   ],
   "max": [
    0.66
   ]
  },
  {
   "bufferView": 42,
   "componentType": 5126,
   "count": 17,
   "type": "VEC4"
  },
  {
   "bufferView": 43,
   "componentType": 5126,
   "count": 17,
   "type": "SCALAR",
   "min": [
    0.0
   ],
   "max": [
    0.66
   ]
  },
  {
   "bufferView": 44,
   "componentType": 5126,
   "count": 17,
   "type": "VEC4"
  },
  {
   "bufferView": 45,
   "componentType": 5126,
   "count": 17,
   "type": "SCALAR",
   "min": [
    0.0
   ],
   "max": [
    0.66
   ]
  },
  {
   "bufferView": 46,
   "componentType": 5126,
   "count": 17,
   "type": "VEC4"
  },
  {
   "bufferView": 47,
   "componentType": 5126,
   "count": 17,
   "type": "SCALAR",
   "min": [
    0.0
   ],
   "max": [
    0.66
   ]
  },
  {
   "bufferView": 48,
   "componentType": 5126,
   "count": 17,
   "type": "VEC4"
  },
  {
   "bufferView": 49,
   "componentType": 5126,
   "count": 17,
   "type": "SCALAR",
   "min": [
    0.0
   ],
   "max": [
    0.66
   ]
  },
  {
   "bufferView": 50,
   "componentType": 5126,
   "count": 17,
   "type": "VEC4"
  },
  {
   "bufferView": 51,
   "componentType": 5126,
   "count": 17,
   "type": "SCALAR",
   "min": [
    0.0
   ],
   "max": [
    0.66
   ]
  },
  {
   "bufferView": 52,
   "componentType": 5126,
   "count": 17,
   "type": "VEC4"
  },
  {
   "bufferView": 53,
   "componentType": 5126,
   "count": 17,
   "type": "SCALAR",
   "min": [
    0.0
   ],
   "max": [
    0.66
   ]
  },
  {
   "bufferView": 54,
   "componentType": 5126,
   "count": 17,
   "type": "VEC4"
  },
  {
   "bufferView": 55,
   "componentType": 5126,
   "count": 17,
   "type": "SCALAR",
   "min": [
    0.0
   ],
   "max": [
    0.66
   ]
  },
  {
   "bufferView": 56,
   "componentType": 5126,
   "count": 17,
   "type": "VEC4"
  },
  {
   "bufferView": 57,
   "componentType": 5126,
   "count": 17,
   "type": "SCALAR",
   "min": [
    0.0
   ],
   "max": [
    0.66
   ]
  },
  {
   "bufferView": 58,
   "componentType": 5126,
   "count": 17,
   "type": "VEC4"
  },
  {
   "bufferView": 59,
   "componentType": 5126,
   "count": 17,
   "type": "SCALAR",
   "min": [
    0.0
   ],
   "max": [
    0.66
   ]
  },
  {
   "bufferView": 60,
   "componentType": 5126,
   "count": 17,
   "type": "VEC4"
  },
  {
   "bufferView": 61,
   "componentType": 5126,
   "count": 17,
   "type": "SCALAR",
   "min": [
    0.0
   ],
   "max": [
    0.66
   ]
  },
  {
   "bufferView": 62,
   "componentType": 5126,
   "count": 17,
   "type": "VEC4"
  },
  {
   "bufferView": 63,
   "componentType": 5126,
   "count": 17,
   "type": "SCALAR",
   "min": [
    0.0
   ],
   "max": [
    0.66
   ]
  },
  {
   "bufferView": 64,
   "componentType": 5126,
   "count": 17,
   "type": "VEC4"
  },
  {
   "bufferView": 65,
   "componentType": 5126,
   "count": 17,
   "type": "SCALAR",
   "min": [
    0.0
   ],
   "max": [
    0.66
   ]
  },
  {
   "bufferView": 66,
   "componentType": 5126,
   "count": 17,
   "type": "VEC3"
  },
  {
   "bufferView": 67,
   "componentType": 5126,
   "count": 21,
   "type": "SCALAR",
   "min": [
    0.0
   ],
   "max": [
    1.5
   ]
  },
  {
   "bufferView": 68,
   "componentType": 5126,
   "count": 21,
   "type": "VEC4"
  },
  {
   "bufferView": 69,
   "componentType": 5126,
   "count": 21,
   "type": "SCALAR",
   "min": [
    0.0
   ],
   "max": [
    1.5
   ]
  },
  {
   "bufferView": 70,
   "componentType": 5126,
   "count": 21,
   "type": "VEC4"
  },
  {
   "bufferView": 71,
   "componentType": 5126,
   "count": 21,
   "type": "SCALAR",
   "min": [
    0.0
   ],
   "max": [
    1.5
   ]
  },
  {
   "bufferView": 72,
   "componentType": 5126,
   "count": 21,
   "type": "VEC4"
  },
  {
   "bufferView": 73,
   "componentType": 5126,
   "count": 21,
   "type": "SCALAR",
   "min": [
    0.0
   ],
   "max": [
    1.5
   ]
  },
  {
   "bufferView": 74,
   "componentType": 5126,
   "count": 21,
   "type": "VEC4"
  },
  {
   "bufferView": 75,
   "componentType": 5126,
   "count": 21,
   "type": "SCALAR",
   "min": [
    0.0
   ],
   "max": [
    1.5
   ]
  },
  {
   "bufferView": 76,
   "componentType": 5126,
   "count": 21,
   "type": "VEC4"
  },
  {
   "bufferView": 77,
   "componentType": 5126,
   "count": 21,
   "type": "SCALAR",
   "min": [
    0.0
   ],
   "max": [
    1.5
   ]
  },
  {
   "bufferView": 78,
   "componentType": 5126,
   "count": 21,
   "type": "VEC4"
  },
  {
   "bufferView": 79,
   "componentType": 5126,
   "count": 21,
   "type": "SCALAR",
   "min": [
    0.0
   ],
   "max": [
    1.5
   ]
  },
  {
   "bufferView": 80,
   "componentType": 5126,
   "count": 21,
   "type": "VEC4"
  },
  {
   "bufferView": 81,
   "componentType": 5126,
   "count": 21,
   "type": "SCALAR",
   "min": [
    0.0
   ],
   "max": [
    1.5
   ]
  },
  {
   "bufferView": 82,
   "componentType": 5126,
   "count": 21,
   "type": "VEC4"
  },
  {
   "bufferView": 83,
   "componentType": 5126,
   "count": 21,
   "type": "SCALAR",
   "min": [
    0.0
   ],
   "max": [
    1.5
   ]
  },
  {
   "bufferView": 84,
   "componentType": 5126,
   "count": 21,
   "type": "VEC4"
  },
  {
   "bufferView": 85,
   "componentType": 5126,
   "count": 21,
   "type": "SCALAR",
   "min": [
    0.0
   ],
   "max": [
    1.5
   ]
  },
  {
   "bufferView": 86,
   "componentType": 5126,
   "count": 21,
   "type": "VEC4"
  },
  {
   "bufferView": 87,
   "componentType": 5126,
   "count": 21,
   "type": "SCALAR",
   "min": [
    0.0
   ],
   "max": [
    1.5
   ]
  },
  {
   "bufferView": 88,
   "componentType": 5126,
   "count": 21,
   "type": "VEC4"
  },
  {
   "bufferView": 89,
   "componentType": 5126,
   "count": 21,
   "type": "SCALAR",
   "min": [
    0.0
   ],
   "max": [
    1.5
   ]
  },
  {
   "bufferView": 90,
   "componentType": 5126,
   "count": 21,
   "type": "VEC4"
  },
  {
   "bufferView": 91,
   "componentType": 5126,
   "count": 21,
   "type": "SCALAR",
   "min": [
    0.0
   ],
   "max": [
    1.5
   ]
  },
  {
   "bufferView": 92,
   "componentType": 5126,
   "count": 21,
   "type": "VEC4"
  },
  {
   "bufferView": 93,
   "componentType": 5126,
   "count": 21,
   "type": "SCALAR",
   "min": [
    0.0
   ],
   "max": [
    1.5
   ]
  },
  {
   "bufferView": 94,
   "componentType": 5126,
   "count": 21,
   "type": "VEC4"
  },
  {
   "bufferView": 95,
   "componentType": 5126,
   "count": 21,
   "type": "SCALAR",
   "min": [
    0.0
   ],
   "max": [
    1.5
   ]
  },
  {
   "bufferView": 96,
   "componentType": 5126,
   "count": 21,
   "type": "VEC3"
  }
 ],
 "buffers": [
  {
   "byteLength": 49864,
   "uri": "data:application/octet-stream;base64,"
  }
 ],
 "textures": [
  {
   "sampler": 0,
   "source": 0
  }
 ],
 "samplers": [
  {
   "magFilter": 9728,
   "minFilter": 9984,
   "wrapS": 33071,
   "wrapT": 33071
  }
 ],
 "images": [
  {
   "uri": "../../textures/animals/sheep_atlas_new.png",
   "mimeType": "image/png"
  }
 ],
 "animations": [
  {
   "name": "idle",
   "samplers": [
    {
     "input": 7,
     "output": 8,
     "interpolation": "LINEAR"
    },
    {
     "input": 9,
     "output": 10,
     "interpolation": "LINEAR"
    },
    {
     "input": 11,
     "output": 12,
     "interpolation": "LINEAR"
    },
    {
     "input": 13,
     "output": 14,
     "interpolation": "LINEAR"
    },
    {
     "input": 15,
     "output": 16,
     "interpolation": "LINEAR"
    },
    {
     "input": 17,
     "output": 18,
     "interpolation": "LINEAR"
    },
    {
     "input": 19,
     "output": 20,
     "interpolation": "LINEAR"
    },
    {
     "input": 21,
     "output": 22,
     "interpolation": "LINEAR"
    },
    {
     "input": 23,
     "output": 24,
     "interpolation": "LINEAR"
    },
    {
     "input": 25,
     "output": 26,
     "interpolation": "LINEAR"
    },
    {
     "input": 27,
     "output": 28,
     "interpolation": "LINEAR"
    },
    {
     "input": 29,
     "output": 30,
     "interpolation": "LINEAR"
    },
    {
     "input": 31,
     "output": 32,
     "interpolation": "LINEAR"
    },
    {
     "input": 33,
     "output": 34,
     "interpolation": "LINEAR"
    },
    {
     "input": 35,
     "output": 36,
     "interpolation": "LINEAR"
    }
   ],
   "channels": [
    {
     "sampler": 0,
     "target": {
      "node": 3,
      "path": "rotation"
     }
    },
    {
     "sampler": 1,
     "target": {
      "node": 5,
      "path": "rotation"
     }
    },
    {
     "sampler": 2,
     "target": {
      "node": 10,
      "path": "rotation"
     }
    },
    {
     "sampler": 3,
     "target": {
      "node": 9,
      "path": "rotation"
     }
    },
    {
     "sampler": 4,
     "target": {
      "node": 14,
      "path": "rotation"
     }
    },
    {
     "sampler": 5,
     "target": {
      "node": 13,
      "path": "rotation"
     }
    },
    {
     "sampler": 6,
     "target": {
      "node": 8,
      "path": "rotation"
     }
    },
    {
     "sampler": 7,
     "target": {
      "node": 7,
      "path": "rotation"
     }
    },
    {
     "sampler": 8,
     "target": {
      "node": 12,
      "path": "rotation"
     }
    },
    {
     "sampler": 9,
     "target": {
      "node": 11,
      "path": "rotation"
     }
    },
    {
     "sampler": 10,
     "target": {
      "node": 4,
      "path": "rotation"
     }
    },
    {
     "sampler": 11,
     "target": {
      "node": 1,
      "path": "rotation"
     }
    },
    {
     "sampler": 12,
     "target": {
      "node": 2,
      "path": "rotation"
     }
    },
    {
     "sampler": 13,
     "target": {
      "node": 6,
      "path": "rotation"
     }
    },
    {
     "sampler": 14,
     "target": {
      "node": 1,
      "path": "translation"
     }
    }
   ]
  },
  {
   "name": "walk",
   "samplers": [
    {
     "input": 37,
     "output": 38,
     "interpolation": "LINEAR"
    },
    {
     "input": 39,
     "output": 40,
     "interpolation": "LINEAR"
    },
    {
     "input": 41,
     "output": 42,
     "interpolation": "LINEAR"
    },
    {
     "input": 43,
     "output": 44,
     "interpolation": "LINEAR"
    },
    {
     "input": 45,
     "output": 46,
     "interpolation": "LINEAR"
    },
    {
     "input": 47,
     "output": 48,
     "interpolation": "LINEAR"
    },
    {
     "input": 49,
     "output": 50,
     "interpolation": "LINEAR"
    },
    {
     "input": 51,
     "output": 52,
     "interpolation": "LINEAR"
    },
    {
     "input": 53,
     "output": 54,
     "interpolation": "LINEAR"
    },
    {
     "input": 55,
     "output": 56,
     "interpolation": "LINEAR"
    },
    {
     "input": 57,
     "output": 58,
     "interpolation": "LINEAR"
    },
    {
     "input": 59,
     "output": 60,
     "interpolation": "LINEAR"
    },
    {
     "input": 61,
     "output": 62,
     "interpolation": "LINEAR"
    },
    {
     "input": 63,
     "output": 64,
     "interpolation": "LINEAR"
    },
    {
     "input": 65,
     "output": 66,
     "interpolation": "LINEAR"
    }
   ],
   "channels": [
    {
     "sampler": 0,
     "target": {
      "node": 3,
      "path": "rotation"
     }
    },
    {
     "sampler": 1,
     "target": {
      "node": 5,
      "path": "rotation"
     }
    },
    {
     "sampler": 2,
     "target": {
      "node": 10,
      "path": "rotation"
     }
    },
    {
     "sampler": 3,
     "target": {
      "node": 9,
      "path": "rotation"
     }
    },
    {
     "sampler": 4,
     "target": {
      "node": 14,
      "path": "rotation"
     }
    },
    {
     "sampler": 5,
     "target": {
      "node": 13,
      "path": "rotation"
     }
    },
    {
     "sampler": 6,
     "target": {
      "node": 8,
      "path": "rotation"
     }
    },
    {
     "sampler": 7,
     "target": {
      "node": 7,
      "path": "rotation"
     }
    },
    {
     "sampler": 8,
     "target": {
      "node": 12,
      "path": "rotation"
     }
    },
    {
     "sampler": 9,
     "target": {
      "node": 11,
      "path": "rotation"
     }
    },
    {
     "sampler": 10,
     "target": {
      "node": 4,
      "path": "rotation"
     }
    },
    {
     "sampler": 11,
     "target": {
      "node": 1,
      "path": "rotation"
     }
    },
    {
     "sampler": 12,
     "target": {
      "node": 2,
      "path": "rotation"
     }
    },
    {
     "sampler": 13,
     "target": {
      "node": 6,
      "path": "rotation"
     }
    },
    {
     "sampler": 14,
     "target": {
      "node": 1,
      "path": "translation"
     }
    }
   ]
  },
  {
   "name": "death",
   "samplers": [
    {
     "input": 67,
     "output": 68,
     "interpolation": "LINEAR"
    },
    {
     "input": 69,
     "output": 70,
     "interpolation": "LINEAR"
    },
    {
     "input": 71,
     "output": 72,
     "interpolation": "LINEAR"
    },
    {
     "input": 73,
     "output": 74,
     "interpolation": "LINEAR"
    },
    {
     "input": 75,
     "output": 76,
     "interpolation": "LINEAR"
    },
    {
     "input": 77,
     "output": 78,
     "interpolation": "LINEAR"
    },
    {
     "input": 79,
     "output": 80,
     "interpolation": "LINEAR"
    },
    {
     "input": 81,
     "output": 82,
     "interpolation": "LINEAR"
    },
    {
     "input": 83,
     "output": 84,
     "interpolation": "LINEAR"
    },
    {
     "input": 85,
     "output": 86,
     "interpolation": "LINEAR"
    },
    {
     "input": 87,
     "output": 88,
     "interpolation": "LINEAR"
    },
    {
     "input": 89,
     "output": 90,
     "interpolation": "LINEAR"
    },
    {
     "input": 91,
     "output": 92,
     "interpolation": "LINEAR"
    },
    {
     "input": 93,
     "output": 94,
     "interpolation": "LINEAR"
    },
    {
     "input": 95,
     "output": 96,
     "interpolation": "LINEAR"
    }
   ],
   "channels": [
    {
     "sampler": 0,
     "target": {
      "node": 3,
      "path": "rotation"
     }
    },
    {
     "sampler": 1,
     "target": {
      "node": 5,
      "path": "rotation"
     }
    },
    {
     "sampler": 2,
     "target": {
      "node": 10,
      "path": "rotation"
     }
    },
    {
     "sampler": 3,
     "target": {
      "node": 9,
      "path": "rotation"
     }
    },
    {
     "sampler": 4,
     "target": {
      "node": 14,
      "path": "rotation"
     }
    },
    {
     "sampler": 5,
     "target": {
      "node": 13,
      "path": "rotation"
     }
    },
    {
     "sampler": 6,
     "target": {
      "node": 8,
      "path": "rotation"
     }
    },
    {
     "sampler": 7,
     "target": {
      "node": 7,
      "path": "rotation"
     }
    },
    {
     "sampler": 8,
     "target": {
      "node": 12,
      "path": "rotation"
     }
    },
    {
     "sampler": 9,
     "target": {
      "node": 11,
      "path": "rotation"
     }
    },
    {
     "sampler": 10,
     "target": {
      "node": 4,
      "path": "rotation"
     }
    },
    {
     "sampler": 11,
     "target": {
      "node": 1,
      "path": "rotation"
     }
    },
    {
     "sampler": 12,
     "target": {
      "node": 2,
      "path": "rotation"
     }
    },
    {
     "sampler": 13,
     "target": {
      "node": 6,
      "path": "rotation"
     }
    },
    {
     "sampler": 14,
     "target": {
      "node": 1,
      "path": "translation"
     }
    }
   ]
  }
 ]
}